<?xml version="1.0" encoding="UTF-8" standalone="no"?><svg xmlns="http://www.w3.org/2000/svg" xmlns:xlink="http://www.w3.org/1999/xlink" contentStyleType="text/css" height="1209px" preserveAspectRatio="none" style="width:785px;height:1209px;background:#FFFFFF;" version="1.1" viewBox="0 0 785 1209" width="785px" zoomAndPan="magnify"><defs/><g><rect fill="none" height="26.2969" id="_title" style="stroke:none;stroke-width:1.0;" width="230" x="270.75" y="5"/><text fill="#000000" font-family="sans-serif" font-size="14" font-weight="bold" lengthAdjust="spacing" textLength="220" x="275.75" y="22.9951">Out Of Print - Class Diagram</text><!--MD5=[b79fd03ff18d3ae0e30238b519968545]
class OutOfPrintShop--><g id="elem_OutOfPrintShop"><rect codeLine="3" fill="#F1F1F1" height="96.8906" id="OutOfPrintShop" rx="2.5" ry="2.5" style="stroke:#181818;stroke-width:0.5;" width="308" x="287.5" y="44.2969"/><ellipse cx="383.75" cy="60.2969" fill="#ADD1B2" rx="11" ry="11" style="stroke:#181818;stroke-width:1.0;"/><path d="M386.7188,65.9375 Q386.1406,66.2344 385.5,66.375 Q384.8594,66.5313 384.1563,66.5313 Q381.6563,66.5313 380.3281,64.8906 Q379.0156,63.2344 379.0156,60.1094 Q379.0156,56.9844 380.3281,55.3281 Q381.6563,53.6719 384.1563,53.6719 Q384.8594,53.6719 385.5,53.8281 Q386.1563,53.9844 386.7188,54.2813 L386.7188,57 Q386.0938,56.4219 385.5,56.1563 Q384.9063,55.875 384.2813,55.875 Q382.9375,55.875 382.25,56.9531 Q381.5625,58.0156 381.5625,60.1094 Q381.5625,62.2031 382.25,63.2813 Q382.9375,64.3438 384.2813,64.3438 Q384.9063,64.3438 385.5,64.0781 Q386.0938,63.7969 386.7188,63.2188 L386.7188,65.9375 Z " fill="#000000"/><text fill="#000000" font-family="sans-serif" font-size="14" lengthAdjust="spacing" textLength="107" x="404.25" y="65.1436">OutOfPrintShop</text><line style="stroke:#181818;stroke-width:0.5;" x1="288.5" x2="594.5" y1="76.2969" y2="76.2969"/><ellipse cx="298.5" cy="89.9453" fill="none" rx="3" ry="3" style="stroke:#038048;stroke-width:1.0;"/><text fill="#000000" font-family="sans-serif" font-size="14" lengthAdjust="spacing" textLength="108" x="307.5" y="93.292">Album[] Albums</text><ellipse cx="298.5" cy="106.2422" fill="none" rx="3" ry="3" style="stroke:#038048;stroke-width:1.0;"/><text fill="#000000" font-family="sans-serif" font-size="14" lengthAdjust="spacing" textLength="86" x="307.5" y="109.5889">User[] Users</text><line style="stroke:#181818;stroke-width:0.5;" x1="288.5" x2="594.5" y1="116.8906" y2="116.8906"/><ellipse cx="298.5" cy="130.5391" fill="#84BE84" rx="3" ry="3" style="stroke:#038048;stroke-width:1.0;"/><text fill="#000000" font-family="sans-serif" font-size="14" lengthAdjust="spacing" textLength="282" x="307.5" y="133.8857">User Login(String email, String password)</text></g><!--MD5=[8ae2c2db09eb731972ab511bcae12bf3]
class Artist--><g id="elem_Artist"><rect codeLine="10" fill="#F1F1F1" height="113.1875" id="Artist" rx="2.5" ry="2.5" style="stroke:#181818;stroke-width:0.5;" width="134" x="644.5" y="423.2969"/><ellipse cx="689.75" cy="439.2969" fill="#ADD1B2" rx="11" ry="11" style="stroke:#181818;stroke-width:1.0;"/><path d="M692.7188,444.9375 Q692.1406,445.2344 691.5,445.375 Q690.8594,445.5313 690.1563,445.5313 Q687.6563,445.5313 686.3281,443.8906 Q685.0156,442.2344 685.0156,439.1094 Q685.0156,435.9844 686.3281,434.3281 Q687.6563,432.6719 690.1563,432.6719 Q690.8594,432.6719 691.5,432.8281 Q692.1563,432.9844 692.7188,433.2813 L692.7188,436 Q692.0938,435.4219 691.5,435.1563 Q690.9063,434.875 690.2813,434.875 Q688.9375,434.875 688.25,435.9531 Q687.5625,437.0156 687.5625,439.1094 Q687.5625,441.2031 688.25,442.2813 Q688.9375,443.3438 690.2813,443.3438 Q690.9063,443.3438 691.5,443.0781 Q692.0938,442.7969 692.7188,442.2188 L692.7188,444.9375 Z " fill="#000000"/><text fill="#000000" font-family="sans-serif" font-size="14" lengthAdjust="spacing" textLength="35" x="710.25" y="444.1436">Artist</text><line style="stroke:#181818;stroke-width:0.5;" x1="645.5" x2="777.5" y1="455.2969" y2="455.2969"/><rect fill="none" height="6" style="stroke:#C82930;stroke-width:1.0;" width="6" x="652.5" y="465.9453"/><text fill="#000000" font-family="sans-serif" font-size="14" lengthAdjust="spacing" textLength="33" x="664.5" y="472.292">Int Id</text><ellipse cx="655.5" cy="485.2422" fill="none" rx="3" ry="3" style="stroke:#038048;stroke-width:1.0;"/><text fill="#000000" font-family="sans-serif" font-size="14" lengthAdjust="spacing" textLength="73" x="664.5" y="488.5889">String Title</text><ellipse cx="655.5" cy="501.5391" fill="none" rx="3" ry="3" style="stroke:#038048;stroke-width:1.0;"/><text fill="#000000" font-family="sans-serif" font-size="14" lengthAdjust="spacing" textLength="108" x="664.5" y="504.8857">Album[] Albums</text><line style="stroke:#181818;stroke-width:0.5;" x1="645.5" x2="777.5" y1="512.1875" y2="512.1875"/><ellipse cx="655.5" cy="525.8359" fill="#84BE84" rx="3" ry="3" style="stroke:#038048;stroke-width:1.0;"/><text fill="#000000" font-family="sans-serif" font-size="14" lengthAdjust="spacing" textLength="104" x="664.5" y="529.1826">Label[] Labels()</text></g><!--MD5=[3fd616f346a44cd59a91eb10b19e157c]
class User--><g id="elem_User"><rect codeLine="17" fill="#F1F1F1" height="113.1875" id="User" rx="2.5" ry="2.5" style="stroke:#181818;stroke-width:0.5;" width="146" x="286.5" y="201.2969"/><ellipse cx="339.25" cy="217.2969" fill="#ADD1B2" rx="11" ry="11" style="stroke:#181818;stroke-width:1.0;"/><path d="M342.2188,222.9375 Q341.6406,223.2344 341,223.375 Q340.3594,223.5313 339.6563,223.5313 Q337.1563,223.5313 335.8281,221.8906 Q334.5156,220.2344 334.5156,217.1094 Q334.5156,213.9844 335.8281,212.3281 Q337.1563,210.6719 339.6563,210.6719 Q340.3594,210.6719 341,210.8281 Q341.6563,210.9844 342.2188,211.2813 L342.2188,214 Q341.5938,213.4219 341,213.1563 Q340.4063,212.875 339.7813,212.875 Q338.4375,212.875 337.75,213.9531 Q337.0625,215.0156 337.0625,217.1094 Q337.0625,219.2031 337.75,220.2813 Q338.4375,221.3438 339.7813,221.3438 Q340.4063,221.3438 341,221.0781 Q341.5938,220.7969 342.2188,220.2188 L342.2188,222.9375 Z " fill="#000000"/><text fill="#000000" font-family="sans-serif" font-size="14" lengthAdjust="spacing" textLength="32" x="359.75" y="222.1436">User</text><line style="stroke:#181818;stroke-width:0.5;" x1="287.5" x2="431.5" y1="233.2969" y2="233.2969"/><rect fill="none" height="6" style="stroke:#C82930;stroke-width:1.0;" width="6" x="294.5" y="243.9453"/><text fill="#000000" font-family="sans-serif" font-size="14" lengthAdjust="spacing" textLength="33" x="306.5" y="250.292">Int Id</text><rect fill="none" height="6" style="stroke:#C82930;stroke-width:1.0;" width="6" x="294.5" y="260.2422"/><text fill="#000000" font-family="sans-serif" font-size="14" lengthAdjust="spacing" textLength="75" x="306.5" y="266.5889">Int ProfileId</text><ellipse cx="297.5" cy="279.5391" fill="none" rx="3" ry="3" style="stroke:#038048;stroke-width:1.0;"/><text fill="#000000" font-family="sans-serif" font-size="14" lengthAdjust="spacing" textLength="120" x="306.5" y="282.8857">UserProfile Profile</text><line style="stroke:#181818;stroke-width:0.5;" x1="287.5" x2="431.5" y1="290.1875" y2="290.1875"/><ellipse cx="297.5" cy="303.8359" fill="#84BE84" rx="3" ry="3" style="stroke:#038048;stroke-width:1.0;"/><text fill="#000000" font-family="sans-serif" font-size="14" lengthAdjust="spacing" textLength="110" x="306.5" y="307.1826">Order[] Orders()</text></g><!--MD5=[7dde244f1b93ccf44d7f9e836b89e039]
class UserProfile--><g id="elem_UserProfile"><rect codeLine="25" fill="#F1F1F1" height="145.7813" id="UserProfile" rx="2.5" ry="2.5" style="stroke:#181818;stroke-width:0.5;" width="205" x="7" y="406.7969"/><ellipse cx="68.25" cy="422.7969" fill="#ADD1B2" rx="11" ry="11" style="stroke:#181818;stroke-width:1.0;"/><path d="M71.2188,428.4375 Q70.6406,428.7344 70,428.875 Q69.3594,429.0313 68.6563,429.0313 Q66.1563,429.0313 64.8281,427.3906 Q63.5156,425.7344 63.5156,422.6094 Q63.5156,419.4844 64.8281,417.8281 Q66.1563,416.1719 68.6563,416.1719 Q69.3594,416.1719 70,416.3281 Q70.6563,416.4844 71.2188,416.7813 L71.2188,419.5 Q70.5938,418.9219 70,418.6563 Q69.4063,418.375 68.7813,418.375 Q67.4375,418.375 66.75,419.4531 Q66.0625,420.5156 66.0625,422.6094 Q66.0625,424.7031 66.75,425.7813 Q67.4375,426.8438 68.7813,426.8438 Q69.4063,426.8438 70,426.5781 Q70.5938,426.2969 71.2188,425.7188 L71.2188,428.4375 Z " fill="#000000"/><text fill="#000000" font-family="sans-serif" font-size="14" lengthAdjust="spacing" textLength="74" x="88.75" y="427.6436">UserProfile</text><line style="stroke:#181818;stroke-width:0.5;" x1="8" x2="211" y1="438.7969" y2="438.7969"/><rect fill="none" height="6" style="stroke:#C82930;stroke-width:1.0;" width="6" x="15" y="449.4453"/><text fill="#000000" font-family="sans-serif" font-size="14" lengthAdjust="spacing" textLength="37" x="27" y="455.792">Int Id,</text><ellipse cx="18" cy="468.7422" fill="none" rx="3" ry="3" style="stroke:#038048;stroke-width:1.0;"/><text fill="#000000" font-family="sans-serif" font-size="14" lengthAdjust="spacing" textLength="113" x="27" y="472.0889">String FirstName</text><ellipse cx="18" cy="485.0391" fill="none" rx="3" ry="3" style="stroke:#038048;stroke-width:1.0;"/><text fill="#000000" font-family="sans-serif" font-size="14" lengthAdjust="spacing" textLength="112" x="27" y="488.3857">String LastName</text><ellipse cx="18" cy="501.3359" fill="none" rx="3" ry="3" style="stroke:#038048;stroke-width:1.0;"/><text fill="#000000" font-family="sans-serif" font-size="14" lengthAdjust="spacing" textLength="80" x="27" y="504.6826">String Email</text><ellipse cx="18" cy="517.6328" fill="none" rx="3" ry="3" style="stroke:#038048;stroke-width:1.0;"/><text fill="#000000" font-family="sans-serif" font-size="14" lengthAdjust="spacing" textLength="111" x="27" y="520.9795">String Password</text><ellipse cx="18" cy="533.9297" fill="none" rx="3" ry="3" style="stroke:#038048;stroke-width:1.0;"/><text fill="#000000" font-family="sans-serif" font-size="14" lengthAdjust="spacing" textLength="179" x="27" y="537.2764">String Address // Not Sure</text><line style="stroke:#181818;stroke-width:0.5;" x1="8" x2="211" y1="544.5781" y2="544.5781"/></g><!--MD5=[eae91a105560dd2fa82c32dc3c32053e]
class ShippingCost--><g id="elem_ShippingCost"><rect codeLine="35" fill="#F1F1F1" height="80.5938" id="ShippingCost" rx="2.5" ry="2.5" style="stroke:#181818;stroke-width:0.5;" width="124" x="212.5" y="661.2969"/><ellipse cx="227.5" cy="677.2969" fill="#ADD1B2" rx="11" ry="11" style="stroke:#181818;stroke-width:1.0;"/><path d="M230.4688,682.9375 Q229.8906,683.2344 229.25,683.375 Q228.6094,683.5313 227.9063,683.5313 Q225.4063,683.5313 224.0781,681.8906 Q222.7656,680.2344 222.7656,677.1094 Q222.7656,673.9844 224.0781,672.3281 Q225.4063,670.6719 227.9063,670.6719 Q228.6094,670.6719 229.25,670.8281 Q229.9063,670.9844 230.4688,671.2813 L230.4688,674 Q229.8438,673.4219 229.25,673.1563 Q228.6563,672.875 228.0313,672.875 Q226.6875,672.875 226,673.9531 Q225.3125,675.0156 225.3125,677.1094 Q225.3125,679.2031 226,680.2813 Q226.6875,681.3438 228.0313,681.3438 Q228.6563,681.3438 229.25,681.0781 Q229.8438,680.7969 230.4688,680.2188 L230.4688,682.9375 Z " fill="#000000"/><text fill="#000000" font-family="sans-serif" font-size="14" lengthAdjust="spacing" textLength="92" x="241.5" y="682.1436">ShippingCost</text><line style="stroke:#181818;stroke-width:0.5;" x1="213.5" x2="335.5" y1="693.2969" y2="693.2969"/><rect fill="none" height="6" style="stroke:#C82930;stroke-width:1.0;" width="6" x="220.5" y="703.9453"/><text fill="#000000" font-family="sans-serif" font-size="14" lengthAdjust="spacing" textLength="37" x="232.5" y="710.292">Int Id,</text><ellipse cx="223.5" cy="723.2422" fill="none" rx="3" ry="3" style="stroke:#038048;stroke-width:1.0;"/><text fill="#000000" font-family="sans-serif" font-size="14" lengthAdjust="spacing" textLength="93" x="232.5" y="726.5889">Decimal Price</text><line style="stroke:#181818;stroke-width:0.5;" x1="213.5" x2="335.5" y1="733.8906" y2="733.8906"/></g><!--MD5=[e84c991d4d3bbf916ee1653c86a9249d]
class Label--><g id="elem_Label"><rect codeLine="41" fill="#F1F1F1" height="113.1875" id="Label" rx="2.5" ry="2.5" style="stroke:#181818;stroke-width:0.5;" width="144" x="577.5" y="645.2969"/><ellipse cx="627.25" cy="661.2969" fill="#ADD1B2" rx="11" ry="11" style="stroke:#181818;stroke-width:1.0;"/><path d="M630.2188,666.9375 Q629.6406,667.2344 629,667.375 Q628.3594,667.5313 627.6563,667.5313 Q625.1563,667.5313 623.8281,665.8906 Q622.5156,664.2344 622.5156,661.1094 Q622.5156,657.9844 623.8281,656.3281 Q625.1563,654.6719 627.6563,654.6719 Q628.3594,654.6719 629,654.8281 Q629.6563,654.9844 630.2188,655.2813 L630.2188,658 Q629.5938,657.4219 629,657.1563 Q628.4063,656.875 627.7813,656.875 Q626.4375,656.875 625.75,657.9531 Q625.0625,659.0156 625.0625,661.1094 Q625.0625,663.2031 625.75,664.2813 Q626.4375,665.3438 627.7813,665.3438 Q628.4063,665.3438 629,665.0781 Q629.5938,664.7969 630.2188,664.2188 L630.2188,666.9375 Z " fill="#000000"/><text fill="#000000" font-family="sans-serif" font-size="14" lengthAdjust="spacing" textLength="36" x="647.75" y="666.1436">Label</text><line style="stroke:#181818;stroke-width:0.5;" x1="578.5" x2="720.5" y1="677.2969" y2="677.2969"/><rect fill="none" height="6" style="stroke:#C82930;stroke-width:1.0;" width="6" x="585.5" y="687.9453"/><text fill="#000000" font-family="sans-serif" font-size="14" lengthAdjust="spacing" textLength="33" x="597.5" y="694.292">Int Id</text><ellipse cx="588.5" cy="707.2422" fill="none" rx="3" ry="3" style="stroke:#038048;stroke-width:1.0;"/><text fill="#000000" font-family="sans-serif" font-size="14" lengthAdjust="spacing" textLength="73" x="597.5" y="710.5889">String Title</text><line style="stroke:#181818;stroke-width:0.5;" x1="578.5" x2="720.5" y1="717.8906" y2="717.8906"/><ellipse cx="588.5" cy="731.5391" fill="#84BE84" rx="3" ry="3" style="stroke:#038048;stroke-width:1.0;"/><text fill="#000000" font-family="sans-serif" font-size="14" lengthAdjust="spacing" textLength="118" x="597.5" y="734.8857">Album[] Albums()</text><ellipse cx="588.5" cy="747.8359" fill="#84BE84" rx="3" ry="3" style="stroke:#038048;stroke-width:1.0;"/><text fill="#000000" font-family="sans-serif" font-size="14" lengthAdjust="spacing" textLength="102" x="597.5" y="751.1826">Artist[] Artists()</text></g><!--MD5=[7560274dc4d8b0cfc2c0496e7291d5fc]
class Album--><g id="elem_Album"><rect codeLine="49" fill="#F1F1F1" height="227.2656" id="Album" rx="2.5" ry="2.5" style="stroke:#181818;stroke-width:0.5;" width="156" x="508.5" y="818.2969"/><ellipse cx="560.75" cy="834.2969" fill="#ADD1B2" rx="11" ry="11" style="stroke:#181818;stroke-width:1.0;"/><path d="M563.7188,839.9375 Q563.1406,840.2344 562.5,840.375 Q561.8594,840.5313 561.1563,840.5313 Q558.6563,840.5313 557.3281,838.8906 Q556.0156,837.2344 556.0156,834.1094 Q556.0156,830.9844 557.3281,829.3281 Q558.6563,827.6719 561.1563,827.6719 Q561.8594,827.6719 562.5,827.8281 Q563.1563,827.9844 563.7188,828.2813 L563.7188,831 Q563.0938,830.4219 562.5,830.1563 Q561.9063,829.875 561.2813,829.875 Q559.9375,829.875 559.25,830.9531 Q558.5625,832.0156 558.5625,834.1094 Q558.5625,836.2031 559.25,837.2813 Q559.9375,838.3438 561.2813,838.3438 Q561.9063,838.3438 562.5,838.0781 Q563.0938,837.7969 563.7188,837.2188 L563.7188,839.9375 Z " fill="#000000"/><text fill="#000000" font-family="sans-serif" font-size="14" lengthAdjust="spacing" textLength="43" x="581.25" y="839.1436">Album</text><line style="stroke:#181818;stroke-width:0.5;" x1="509.5" x2="663.5" y1="850.2969" y2="850.2969"/><rect fill="none" height="6" style="stroke:#C82930;stroke-width:1.0;" width="6" x="516.5" y="860.9453"/><text fill="#000000" font-family="sans-serif" font-size="14" lengthAdjust="spacing" textLength="68" x="528.5" y="867.292">Int ArtistId</text><rect fill="none" height="6" style="stroke:#C82930;stroke-width:1.0;" width="6" x="516.5" y="877.2422"/><text fill="#000000" font-family="sans-serif" font-size="14" lengthAdjust="spacing" textLength="69" x="528.5" y="883.5889">Int LabelId</text><rect fill="none" height="6" style="stroke:#C82930;stroke-width:1.0;" width="6" x="516.5" y="893.5391"/><text fill="#000000" font-family="sans-serif" font-size="14" lengthAdjust="spacing" textLength="81" x="528.5" y="899.8857">Int FormatId</text><ellipse cx="519.5" cy="912.8359" fill="none" rx="3" ry="3" style="stroke:#038048;stroke-width:1.0;"/><text fill="#000000" font-family="sans-serif" font-size="14" lengthAdjust="spacing" textLength="73" x="528.5" y="916.1826">String Title</text><ellipse cx="519.5" cy="929.1328" fill="none" rx="3" ry="3" style="stroke:#038048;stroke-width:1.0;"/><text fill="#000000" font-family="sans-serif" font-size="14" lengthAdjust="spacing" textLength="68" x="528.5" y="932.4795">Date Year</text><ellipse cx="519.5" cy="945.4297" fill="none" rx="3" ry="3" style="stroke:#038048;stroke-width:1.0;"/><text fill="#000000" font-family="sans-serif" font-size="14" lengthAdjust="spacing" textLength="91" x="528.5" y="948.7764">String Edition</text><ellipse cx="519.5" cy="961.7266" fill="none" rx="3" ry="3" style="stroke:#038048;stroke-width:1.0;"/><text fill="#000000" font-family="sans-serif" font-size="14" lengthAdjust="spacing" textLength="106" x="528.5" y="965.0732">Image[] Images</text><ellipse cx="519.5" cy="978.0234" fill="none" rx="3" ry="3" style="stroke:#038048;stroke-width:1.0;"/><text fill="#000000" font-family="sans-serif" font-size="14" lengthAdjust="spacing" textLength="91" x="528.5" y="981.3701">String Details</text><ellipse cx="519.5" cy="994.3203" fill="none" rx="3" ry="3" style="stroke:#038048;stroke-width:1.0;"/><text fill="#000000" font-family="sans-serif" font-size="14" lengthAdjust="spacing" textLength="110" x="528.5" y="997.667">String Condition</text><ellipse cx="519.5" cy="1010.6172" fill="none" rx="3" ry="3" style="stroke:#038048;stroke-width:1.0;"/><text fill="#000000" font-family="sans-serif" font-size="14" lengthAdjust="spacing" textLength="130" x="528.5" y="1013.9639">String SoundFileUri</text><ellipse cx="519.5" cy="1026.9141" fill="none" rx="3" ry="3" style="stroke:#038048;stroke-width:1.0;"/><text fill="#000000" font-family="sans-serif" font-size="14" lengthAdjust="spacing" textLength="93" x="528.5" y="1030.2607">Decimal Price</text><line style="stroke:#181818;stroke-width:0.5;" x1="509.5" x2="663.5" y1="1037.5625" y2="1037.5625"/></g><!--MD5=[f144808e0e29279a3117e64f7a82a4df]
class Format--><g id="elem_Format"><rect codeLine="63" fill="#F1F1F1" height="96.8906" id="Format" rx="2.5" ry="2.5" style="stroke:#181818;stroke-width:0.5;" width="111" x="531" y="1105.2969"/><ellipse cx="559.95" cy="1121.2969" fill="#ADD1B2" rx="11" ry="11" style="stroke:#181818;stroke-width:1.0;"/><path d="M562.9188,1126.9375 Q562.3406,1127.2344 561.7,1127.375 Q561.0594,1127.5313 560.3563,1127.5313 Q557.8563,1127.5313 556.5281,1125.8906 Q555.2156,1124.2344 555.2156,1121.1094 Q555.2156,1117.9844 556.5281,1116.3281 Q557.8563,1114.6719 560.3563,1114.6719 Q561.0594,1114.6719 561.7,1114.8281 Q562.3563,1114.9844 562.9188,1115.2813 L562.9188,1118 Q562.2938,1117.4219 561.7,1117.1563 Q561.1063,1116.875 560.4813,1116.875 Q559.1375,1116.875 558.45,1117.9531 Q557.7625,1119.0156 557.7625,1121.1094 Q557.7625,1123.2031 558.45,1124.2813 Q559.1375,1125.3438 560.4813,1125.3438 Q561.1063,1125.3438 561.7,1125.0781 Q562.2938,1124.7969 562.9188,1124.2188 L562.9188,1126.9375 Z " fill="#000000"/><text fill="#000000" font-family="sans-serif" font-size="14" lengthAdjust="spacing" textLength="48" x="577.05" y="1126.1436">Format</text><line style="stroke:#181818;stroke-width:0.5;" x1="532" x2="641" y1="1137.2969" y2="1137.2969"/><rect fill="none" height="6" style="stroke:#C82930;stroke-width:1.0;" width="6" x="539" y="1147.9453"/><text fill="#000000" font-family="sans-serif" font-size="14" lengthAdjust="spacing" textLength="33" x="551" y="1154.292">Int Id</text><ellipse cx="542" cy="1167.2422" fill="none" rx="3" ry="3" style="stroke:#038048;stroke-width:1.0;"/><text fill="#000000" font-family="sans-serif" font-size="14" lengthAdjust="spacing" textLength="85" x="551" y="1170.5889">Float Weight</text><ellipse cx="542" cy="1183.5391" fill="none" rx="3" ry="3" style="stroke:#038048;stroke-width:1.0;"/><text fill="#000000" font-family="sans-serif" font-size="14" lengthAdjust="spacing" textLength="73" x="551" y="1186.8857">String Title</text><line style="stroke:#181818;stroke-width:0.5;" x1="532" x2="641" y1="1194.1875" y2="1194.1875"/></g><!--MD5=[cf4d6237fcae255cd2e1656cf84a30e2]
class Order--><g id="elem_Order"><rect codeLine="70" fill="#F1F1F1" height="210.9688" id="Order" rx="2.5" ry="2.5" style="stroke:#181818;stroke-width:0.5;" width="224" x="247.5" y="374.2969"/><ellipse cx="335.75" cy="390.2969" fill="#ADD1B2" rx="11" ry="11" style="stroke:#181818;stroke-width:1.0;"/><path d="M338.7188,395.9375 Q338.1406,396.2344 337.5,396.375 Q336.8594,396.5313 336.1563,396.5313 Q333.6563,396.5313 332.3281,394.8906 Q331.0156,393.2344 331.0156,390.1094 Q331.0156,386.9844 332.3281,385.3281 Q333.6563,383.6719 336.1563,383.6719 Q336.8594,383.6719 337.5,383.8281 Q338.1563,383.9844 338.7188,384.2813 L338.7188,387 Q338.0938,386.4219 337.5,386.1563 Q336.9063,385.875 336.2813,385.875 Q334.9375,385.875 334.25,386.9531 Q333.5625,388.0156 333.5625,390.1094 Q333.5625,392.2031 334.25,393.2813 Q334.9375,394.3438 336.2813,394.3438 Q336.9063,394.3438 337.5,394.0781 Q338.0938,393.7969 338.7188,393.2188 L338.7188,395.9375 Z " fill="#000000"/><text fill="#000000" font-family="sans-serif" font-size="14" lengthAdjust="spacing" textLength="39" x="356.25" y="395.1436">Order</text><line style="stroke:#181818;stroke-width:0.5;" x1="248.5" x2="470.5" y1="406.2969" y2="406.2969"/><rect fill="none" height="6" style="stroke:#C82930;stroke-width:1.0;" width="6" x="255.5" y="416.9453"/><text fill="#000000" font-family="sans-serif" font-size="14" lengthAdjust="spacing" textLength="33" x="267.5" y="423.292">Int Id</text><rect fill="none" height="6" style="stroke:#C82930;stroke-width:1.0;" width="6" x="255.5" y="433.2422"/><text fill="#000000" font-family="sans-serif" font-size="14" lengthAdjust="spacing" textLength="125" x="267.5" y="439.5889">Int ShippingCostId</text><ellipse cx="258.5" cy="452.5391" fill="none" rx="3" ry="3" style="stroke:#038048;stroke-width:1.0;"/><text fill="#000000" font-family="sans-serif" font-size="14" lengthAdjust="spacing" textLength="65" x="267.5" y="455.8857">Int UserId</text><text fill="#000000" font-family="sans-serif" font-size="14" lengthAdjust="spacing" textLength="4" x="267.5" y="472.1826"> </text><ellipse cx="258.5" cy="485.1328" fill="none" rx="3" ry="3" style="stroke:#038048;stroke-width:1.0;"/><text fill="#000000" font-family="sans-serif" font-size="14" lengthAdjust="spacing" textLength="155" x="267.5" y="488.4795">String DeliveryAddress</text><ellipse cx="258.5" cy="501.4297" fill="none" rx="3" ry="3" style="stroke:#038048;stroke-width:1.0;"/><text fill="#000000" font-family="sans-serif" font-size="14" lengthAdjust="spacing" textLength="158" x="267.5" y="504.7764">String InvocingAddress</text><ellipse cx="258.5" cy="517.7266" fill="none" rx="3" ry="3" style="stroke:#038048;stroke-width:1.0;"/><text fill="#000000" font-family="sans-serif" font-size="14" lengthAdjust="spacing" textLength="156" x="267.5" y="521.0732">OrderLine[] OrderLines</text><ellipse cx="258.5" cy="534.0234" fill="none" rx="3" ry="3" style="stroke:#038048;stroke-width:1.0;"/><text fill="#000000" font-family="sans-serif" font-size="14" lengthAdjust="spacing" textLength="68" x="267.5" y="537.3701">User User</text><line style="stroke:#181818;stroke-width:0.5;" x1="248.5" x2="470.5" y1="544.6719" y2="544.6719"/><ellipse cx="258.5" cy="558.3203" fill="#84BE84" rx="3" ry="3" style="stroke:#038048;stroke-width:1.0;"/><text fill="#000000" font-family="sans-serif" font-size="14" lengthAdjust="spacing" textLength="137" x="267.5" y="561.667">Decimal TotalPrice()</text><ellipse cx="258.5" cy="574.6172" fill="#84BE84" rx="3" ry="3" style="stroke:#038048;stroke-width:1.0;"/><text fill="#000000" font-family="sans-serif" font-size="14" lengthAdjust="spacing" textLength="198" x="267.5" y="577.9639">ShippingCost ShippingCost()</text></g><!--MD5=[057726cf5a7b0036039cd1ed4902be71]
class OrderLine--><g id="elem_OrderLine"><rect codeLine="84" fill="#F1F1F1" height="80.5938" id="OrderLine" rx="2.5" ry="2.5" style="stroke:#181818;stroke-width:0.5;" width="99" x="372" y="661.2969"/><ellipse cx="387" cy="677.2969" fill="#ADD1B2" rx="11" ry="11" style="stroke:#181818;stroke-width:1.0;"/><path d="M389.9688,682.9375 Q389.3906,683.2344 388.75,683.375 Q388.1094,683.5313 387.4063,683.5313 Q384.9063,683.5313 383.5781,681.8906 Q382.2656,680.2344 382.2656,677.1094 Q382.2656,673.9844 383.5781,672.3281 Q384.9063,670.6719 387.4063,670.6719 Q388.1094,670.6719 388.75,670.8281 Q389.4063,670.9844 389.9688,671.2813 L389.9688,674 Q389.3438,673.4219 388.75,673.1563 Q388.1563,672.875 387.5313,672.875 Q386.1875,672.875 385.5,673.9531 Q384.8125,675.0156 384.8125,677.1094 Q384.8125,679.2031 385.5,680.2813 Q386.1875,681.3438 387.5313,681.3438 Q388.1563,681.3438 388.75,681.0781 Q389.3438,680.7969 389.9688,680.2188 L389.9688,682.9375 Z " fill="#000000"/><text fill="#000000" font-family="sans-serif" font-size="14" lengthAdjust="spacing" textLength="67" x="401" y="682.1436">OrderLine</text><line style="stroke:#181818;stroke-width:0.5;" x1="373" x2="470" y1="693.2969" y2="693.2969"/><text fill="#000000" font-family="sans-serif" font-size="14" lengthAdjust="spacing" textLength="72" x="378" y="710.292">Int OrderId</text><text fill="#000000" font-family="sans-serif" font-size="14" lengthAdjust="spacing" textLength="76" x="378" y="726.5889">Int AlbumId</text><line style="stroke:#181818;stroke-width:0.5;" x1="373" x2="470" y1="733.8906" y2="733.8906"/></g><!--MD5=[4e4fdf8c0aafd26c49dd2738bc9b4987]
reverse link OutOfPrintShop to Album--><g id="link_OutOfPrintShop_Album"><path codeLine="90" d="M451.98,154.3169 C476.1,293.5469 535.83,638.3269 566.95,817.9369 " fill="none" id="OutOfPrintShop-backto-Album" style="stroke:#181818;stroke-width:1.0;"/><polygon fill="none" points="449.76,141.4969,446.8401,148.0904,451.8033,153.3216,454.7232,146.7282,449.76,141.4969" style="stroke:#181818;stroke-width:1.0;"/></g><!--MD5=[e9d83d7e0d9ff0685ba004293b62f684]
reverse link OutOfPrintShop to User--><g id="link_OutOfPrintShop_User"><path codeLine="91" d="M411.67,153.0969 C403.79,168.7669 395.3,185.6269 387.52,201.0969 " fill="none" id="OutOfPrintShop-backto-User" style="stroke:#181818;stroke-width:1.0;"/><polygon fill="none" points="417.56,141.3769,411.2902,144.9392,412.1671,152.0968,418.4368,148.5345,417.56,141.3769" style="stroke:#181818;stroke-width:1.0;"/></g><!--MD5=[d6b22ec8007db4ed2b4b67ee8e000048]
reverse link Artist to Album--><g id="link_Artist_Album"><path codeLine="92" d="M735.14,549.0369 C751.21,606.6269 765.3,690.3269 739.5,758.2969 C724.02,799.0869 693.98,836.4169 664.59,865.8369 " fill="none" id="Artist-backto-Album" style="stroke:#181818;stroke-width:1.0;"/><polygon fill="none" points="731.47,536.4369,729.3033,543.3148,734.8189,547.9601,736.9855,541.0822,731.47,536.4369" style="stroke:#181818;stroke-width:1.0;"/></g><!--MD5=[f15fcab7b09fffeca82204c38e30e7e3]
reverse link Artist to Label--><g id="link_Artist_Label"><path codeLine="93" d="M692.24,549.1569 C683.56,579.9169 673.46,615.7869 665.25,644.9169 " fill="none" id="Artist-backto-Label" style="stroke:#181818;stroke-width:1.0;"/><polygon fill="none" points="695.85,536.3169,690.3718,541.0062,692.5934,547.8665,698.0716,543.1772,695.85,536.3169" style="stroke:#181818;stroke-width:1.0;"/></g><!--MD5=[15686ebf0508f9e365d0665429920c16]
reverse link Label to Album--><g id="link_Label_Album"><path codeLine="94" d="M630.59,771.2269 C626.5,786.0269 622.08,802.0469 617.66,818.0369 " fill="none" id="Label-backto-Album" style="stroke:#181818;stroke-width:1.0;"/><polygon fill="none" points="634.09,758.5769,628.6331,763.2909,630.8858,770.1412,636.3426,765.4271,634.09,758.5769" style="stroke:#181818;stroke-width:1.0;"/></g><!--MD5=[886e22bab51f7976c0e0b0f77c911140]
reverse link User to Order--><g id="link_User_Order"><path codeLine="95" d="M359.5,327.5169 C359.5,342.2869 359.5,358.2169 359.5,373.9969 " fill="none" id="User-backto-Order" style="stroke:#181818;stroke-width:1.0;"/><polygon fill="none" points="359.5,314.3169,355.5,320.3169,359.5,326.3169,363.5,320.3169,359.5,314.3169" style="stroke:#181818;stroke-width:1.0;"/></g><!--MD5=[89886c64ded1b4cb5ba3d356e90c7574]
reverse link Order to OrderLine--><g id="link_Order_OrderLine"><path codeLine="96" d="M392.53,598.0069 C398.96,620.8169 405.27,643.2069 410.35,661.2369 " fill="none" id="Order-backto-OrderLine" style="stroke:#181818;stroke-width:1.0;"/><polygon fill="none" points="388.96,585.3169,386.7384,592.1772,392.2166,596.8665,394.4382,590.0062,388.96,585.3169" style="stroke:#181818;stroke-width:1.0;"/></g><!--MD5=[e72eec71de9d056e383ff54d230a9ad1]
reverse link Order to ShippingCost--><g id="link_Order_ShippingCost"><path codeLine="97" d="M314.34,597.6869 C305.48,620.6069 296.78,643.1169 289.78,661.2369 " fill="none" id="Order-backto-ShippingCost" style="stroke:#181818;stroke-width:1.0;"/><polygon fill="#181818" points="319.12,585.3169,313.2249,589.4699,314.791,596.5088,320.6862,592.3558,319.12,585.3169" style="stroke:#181818;stroke-width:1.0;"/></g><!--MD5=[7822c378497c295d3b55f1945c4d15d2]
reverse link OrderLine to Album--><g id="link_OrderLine_Album"><path codeLine="98" d="M457.99,753.2269 C472.94,773.8669 490.84,798.6069 508.47,822.9769 " fill="none" id="OrderLine-backto-Album" style="stroke:#181818;stroke-width:1.0;"/><polygon fill="#181818" points="450.24,742.5069,450.5149,749.7127,457.2721,752.2305,456.9973,745.0246,450.24,742.5069" style="stroke:#181818;stroke-width:1.0;"/></g><!--MD5=[1ae211e5268bc162cc92b09fefea8b48]
reverse link Album to Format--><g id="link_Album_Format"><path codeLine="99" d="M586.5,1058.6469 C586.5,1075.0969 586.5,1091.0569 586.5,1105.0269 " fill="none" id="Album-backto-Format" style="stroke:#181818;stroke-width:1.0;"/><polygon fill="#181818" points="586.5,1045.3769,582.5,1051.3769,586.5,1057.3769,590.5,1051.3769,586.5,1045.3769" style="stroke:#181818;stroke-width:1.0;"/></g><!--MD5=[2f6c5899d2813e7a6c8fd4fa2d5d8a7b]
reverse link User to UserProfile--><g id="link_User_UserProfile"><path codeLine="100" d="M286.51,323.0269 C256.72,349.2369 222.14,379.6769 191.49,406.6469 " fill="none" id="User-backto-UserProfile" style="stroke:#181818;stroke-width:1.0;"/><polygon fill="#181818" points="296.41,314.3169,289.2632,315.2776,287.4012,322.2441,294.548,321.2834,296.41,314.3169" style="stroke:#181818;stroke-width:1.0;"/></g><!--MD5=[352f101bbed5ccac32d787a2ceb8ca1d]
@startuml
title Out Of Print - Class Diagram

class OutOfPrintShop
{
  +Album[] Albums
  +User[] Users
  +User Login(String email, String password)
}

class Artist {
  -Int Id
  +String Title
  +Album[] Albums
  +Label[] Labels()
}

class User
{
  -Int Id
  -Int ProfileId
  +UserProfile Profile
  +Order[] Orders()
}

class UserProfile
{
  -Int Id,
  +String FirstName
  +String LastName
  +String Email
  +String Password
  +String Address // Not Sure
}

class ShippingCost
{
  -Int Id,
  +Decimal Price
}

class Label
{
  -Int Id
  +String Title
  +Album[] Albums()
  +Artist[] Artists()
}

class Album {
  -Int ArtistId
  -Int LabelId
  -Int FormatId
  +String Title
  +Date Year
  +String Edition
  +Image[] Images
  +String Details
  +String Condition
  +String SoundFileUri
  +Decimal Price
}

class Format
{
  -Int Id
  +Float Weight
  +String Title
}

class Order
{
  -Int Id
  -Int ShippingCostId
  +Int UserId

  +String DeliveryAddress
  +String InvocingAddress
  +OrderLine[] OrderLines
  +User User
  +Decimal TotalPrice()
  +ShippingCost ShippingCost()
}

class OrderLine
{
  Int OrderId
  Int AlbumId
}

OutOfPrintShop o- - Album
OutOfPrintShop o- - User
Artist o- - Album
Artist o- - Label
Label o- - Album
User o- - Order
Order o- - OrderLine
Order *- -  ShippingCost
OrderLine *- -  Album
Album *- - Format
User *- - UserProfile
@enduml

PlantUML version 1.2022.7(Mon Aug 22 17:01:30 UTC 2022)
(GPL source distribution)
Java Runtime: OpenJDK Runtime Environment
JVM: OpenJDK 64-Bit Server VM
Default Encoding: UTF-8
Language: en
Country: null
--></g></svg>