<?xml version="1.0" encoding="UTF-8" standalone="no"?><svg xmlns="http://www.w3.org/2000/svg" xmlns:xlink="http://www.w3.org/1999/xlink" contentStyleType="text/css" height="642px" preserveAspectRatio="none" style="width:670px;height:642px;background:#FFFFFF;" version="1.1" viewBox="0 0 670 642" width="670px" zoomAndPan="magnify"><defs/><g><rect fill="none" height="26.2969" id="_title" style="stroke:none;stroke-width:1.0;" width="192" x="232.25" y="5"/><text fill="#000000" font-family="sans-serif" font-size="14" font-weight="bold" lengthAdjust="spacing" textLength="182" x="237.25" y="22.9951">Out Of Print - Database</text><!--MD5=[3fd616f346a44cd59a91eb10b19e157c]
class User--><g id="elem_User"><rect codeLine="3" fill="#F1F1F1" height="145.7813" id="User" rx="2.5" ry="2.5" style="stroke:#181818;stroke-width:0.5;" width="125" x="379" y="489.2969"/><ellipse cx="421.45" cy="505.2969" fill="#ADD1B2" rx="11" ry="11" style="stroke:#181818;stroke-width:1.0;"/><path d="M425.5594,511.2969 L417.8406,511.2969 L417.8406,498.9063 L425.5594,498.9063 L425.5594,501.0625 L420.2938,501.0625 L420.2938,503.7344 L425.0594,503.7344 L425.0594,505.8906 L420.2938,505.8906 L420.2938,509.1406 L425.5594,509.1406 L425.5594,511.2969 Z " fill="#000000"/><text fill="#000000" font-family="sans-serif" font-size="14" lengthAdjust="spacing" textLength="32" x="441.55" y="510.1436">User</text><line style="stroke:#181818;stroke-width:0.5;" x1="380" x2="503" y1="521.2969" y2="521.2969"/><text fill="#000000" font-family="sans-serif" font-size="14" lengthAdjust="spacing" textLength="35" x="385" y="538.292">Int ID</text><text fill="#000000" font-family="sans-serif" font-size="14" lengthAdjust="spacing" textLength="80" x="385" y="554.5889">String Email</text><text fill="#000000" font-family="sans-serif" font-size="14" lengthAdjust="spacing" textLength="113" x="385" y="570.8857">String FirstName</text><text fill="#000000" font-family="sans-serif" font-size="14" lengthAdjust="spacing" textLength="112" x="385" y="587.1826">String LastName</text><text fill="#000000" font-family="sans-serif" font-size="14" lengthAdjust="spacing" textLength="111" x="385" y="603.4795">String Password</text><text fill="#000000" font-family="sans-serif" font-size="14" lengthAdjust="spacing" textLength="101" x="385" y="619.7764">String Address</text><line style="stroke:#181818;stroke-width:0.5;" x1="380" x2="503" y1="627.0781" y2="627.0781"/></g><!--MD5=[8ae2c2db09eb731972ab511bcae12bf3]
class Artist--><g id="elem_Artist"><rect codeLine="13" fill="#F1F1F1" height="80.5938" id="Artist" rx="2.5" ry="2.5" style="stroke:#181818;stroke-width:0.5;" width="85" x="7" y="521.7969"/><ellipse cx="30.1" cy="537.7969" fill="#ADD1B2" rx="11" ry="11" style="stroke:#181818;stroke-width:1.0;"/><path d="M34.2094,543.7969 L26.4906,543.7969 L26.4906,531.4063 L34.2094,531.4063 L34.2094,533.5625 L28.9438,533.5625 L28.9438,536.2344 L33.7094,536.2344 L33.7094,538.3906 L28.9438,538.3906 L28.9438,541.6406 L34.2094,541.6406 L34.2094,543.7969 Z " fill="#000000"/><text fill="#000000" font-family="sans-serif" font-size="14" lengthAdjust="spacing" textLength="35" x="45.9" y="542.6436">Artist</text><line style="stroke:#181818;stroke-width:0.5;" x1="8" x2="91" y1="553.7969" y2="553.7969"/><text fill="#000000" font-family="sans-serif" font-size="14" lengthAdjust="spacing" textLength="35" x="13" y="570.792">Int ID</text><text fill="#000000" font-family="sans-serif" font-size="14" lengthAdjust="spacing" textLength="73" x="13" y="587.0889">String Title</text><line style="stroke:#181818;stroke-width:0.5;" x1="8" x2="91" y1="594.3906" y2="594.3906"/></g><!--MD5=[eae91a105560dd2fa82c32dc3c32053e]
class ShippingCost--><g id="elem_ShippingCost"><rect codeLine="18" fill="#F1F1F1" height="80.5938" id="ShippingCost" rx="2.5" ry="2.5" style="stroke:#181818;stroke-width:0.5;" width="124" x="539.5" y="521.7969"/><ellipse cx="554.5" cy="537.7969" fill="#ADD1B2" rx="11" ry="11" style="stroke:#181818;stroke-width:1.0;"/><path d="M558.6094,543.7969 L550.8906,543.7969 L550.8906,531.4063 L558.6094,531.4063 L558.6094,533.5625 L553.3438,533.5625 L553.3438,536.2344 L558.1094,536.2344 L558.1094,538.3906 L553.3438,538.3906 L553.3438,541.6406 L558.6094,541.6406 L558.6094,543.7969 Z " fill="#000000"/><text fill="#000000" font-family="sans-serif" font-size="14" lengthAdjust="spacing" textLength="92" x="568.5" y="542.6436">ShippingCost</text><line style="stroke:#181818;stroke-width:0.5;" x1="540.5" x2="662.5" y1="553.7969" y2="553.7969"/><text fill="#000000" font-family="sans-serif" font-size="14" lengthAdjust="spacing" textLength="35" x="545.5" y="570.792">Int ID</text><text fill="#000000" font-family="sans-serif" font-size="14" lengthAdjust="spacing" textLength="93" x="545.5" y="587.0889">Decimal Price</text><line style="stroke:#181818;stroke-width:0.5;" x1="540.5" x2="662.5" y1="594.3906" y2="594.3906"/></g><!--MD5=[e84c991d4d3bbf916ee1653c86a9249d]
class Label--><g id="elem_Label"><rect codeLine="24" fill="#F1F1F1" height="80.5938" id="Label" rx="2.5" ry="2.5" style="stroke:#181818;stroke-width:0.5;" width="85" x="127" y="521.7969"/><ellipse cx="149.65" cy="537.7969" fill="#ADD1B2" rx="11" ry="11" style="stroke:#181818;stroke-width:1.0;"/><path d="M153.7594,543.7969 L146.0406,543.7969 L146.0406,531.4063 L153.7594,531.4063 L153.7594,533.5625 L148.4938,533.5625 L148.4938,536.2344 L153.2594,536.2344 L153.2594,538.3906 L148.4938,538.3906 L148.4938,541.6406 L153.7594,541.6406 L153.7594,543.7969 Z " fill="#000000"/><text fill="#000000" font-family="sans-serif" font-size="14" lengthAdjust="spacing" textLength="36" x="165.35" y="542.6436">Label</text><line style="stroke:#181818;stroke-width:0.5;" x1="128" x2="211" y1="553.7969" y2="553.7969"/><text fill="#000000" font-family="sans-serif" font-size="14" lengthAdjust="spacing" textLength="35" x="133" y="570.792">Int ID</text><text fill="#000000" font-family="sans-serif" font-size="14" lengthAdjust="spacing" textLength="73" x="133" y="587.0889">String Title</text><line style="stroke:#181818;stroke-width:0.5;" x1="128" x2="211" y1="594.3906" y2="594.3906"/></g><!--MD5=[7560274dc4d8b0cfc2c0496e7291d5fc]
class Album--><g id="elem_Album"><rect codeLine="30" fill="#F1F1F1" height="243.5625" id="Album" rx="2.5" ry="2.5" style="stroke:#181818;stroke-width:0.5;" width="142" x="139.5" y="185.2969"/><ellipse cx="184.75" cy="201.2969" fill="#ADD1B2" rx="11" ry="11" style="stroke:#181818;stroke-width:1.0;"/><path d="M188.8594,207.2969 L181.1406,207.2969 L181.1406,194.9063 L188.8594,194.9063 L188.8594,197.0625 L183.5938,197.0625 L183.5938,199.7344 L188.3594,199.7344 L188.3594,201.8906 L183.5938,201.8906 L183.5938,205.1406 L188.8594,205.1406 L188.8594,207.2969 Z " fill="#000000"/><text fill="#000000" font-family="sans-serif" font-size="14" lengthAdjust="spacing" textLength="43" x="205.25" y="206.1436">Album</text><line style="stroke:#181818;stroke-width:0.5;" x1="140.5" x2="280.5" y1="217.2969" y2="217.2969"/><text fill="#000000" font-family="sans-serif" font-size="14" lengthAdjust="spacing" textLength="35" x="145.5" y="234.292">Int ID</text><text fill="#000000" font-family="sans-serif" font-size="14" lengthAdjust="spacing" textLength="68" x="145.5" y="250.5889">Int ArtistId</text><text fill="#000000" font-family="sans-serif" font-size="14" lengthAdjust="spacing" textLength="69" x="145.5" y="266.8857">Int LabelId</text><text fill="#000000" font-family="sans-serif" font-size="14" lengthAdjust="spacing" textLength="81" x="145.5" y="283.1826">Int FormatId</text><text fill="#000000" font-family="sans-serif" font-size="14" lengthAdjust="spacing" textLength="73" x="145.5" y="299.4795">String Title</text><text fill="#000000" font-family="sans-serif" font-size="14" lengthAdjust="spacing" textLength="68" x="145.5" y="315.7764">Date Year</text><text fill="#000000" font-family="sans-serif" font-size="14" lengthAdjust="spacing" textLength="91" x="145.5" y="332.0732">String Edition</text><text fill="#000000" font-family="sans-serif" font-size="14" lengthAdjust="spacing" textLength="120" x="145.5" y="348.3701">// Image[] Images</text><text fill="#000000" font-family="sans-serif" font-size="14" lengthAdjust="spacing" textLength="91" x="145.5" y="364.667">String Details</text><text fill="#000000" font-family="sans-serif" font-size="14" lengthAdjust="spacing" textLength="110" x="145.5" y="380.9639">String Condition</text><text fill="#000000" font-family="sans-serif" font-size="14" lengthAdjust="spacing" textLength="130" x="145.5" y="397.2607">String SoundFileUri</text><text fill="#000000" font-family="sans-serif" font-size="14" lengthAdjust="spacing" textLength="93" x="145.5" y="413.5576">Decimal Price</text><line style="stroke:#181818;stroke-width:0.5;" x1="140.5" x2="280.5" y1="420.8594" y2="420.8594"/></g><!--MD5=[f144808e0e29279a3117e64f7a82a4df]
class Format--><g id="elem_Format"><rect codeLine="45" fill="#F1F1F1" height="96.8906" id="Format" rx="2.5" ry="2.5" style="stroke:#181818;stroke-width:0.5;" width="97" x="247" y="513.7969"/><ellipse cx="269.65" cy="529.7969" fill="#ADD1B2" rx="11" ry="11" style="stroke:#181818;stroke-width:1.0;"/><path d="M273.7594,535.7969 L266.0406,535.7969 L266.0406,523.4063 L273.7594,523.4063 L273.7594,525.5625 L268.4938,525.5625 L268.4938,528.2344 L273.2594,528.2344 L273.2594,530.3906 L268.4938,530.3906 L268.4938,533.6406 L273.7594,533.6406 L273.7594,535.7969 Z " fill="#000000"/><text fill="#000000" font-family="sans-serif" font-size="14" lengthAdjust="spacing" textLength="48" x="285.35" y="534.6436">Format</text><line style="stroke:#181818;stroke-width:0.5;" x1="248" x2="343" y1="545.7969" y2="545.7969"/><text fill="#000000" font-family="sans-serif" font-size="14" lengthAdjust="spacing" textLength="35" x="253" y="562.792">Int ID</text><text fill="#000000" font-family="sans-serif" font-size="14" lengthAdjust="spacing" textLength="73" x="253" y="579.0889">String Title</text><text fill="#000000" font-family="sans-serif" font-size="14" lengthAdjust="spacing" textLength="85" x="253" y="595.3857">Float Weight</text><line style="stroke:#181818;stroke-width:0.5;" x1="248" x2="343" y1="602.6875" y2="602.6875"/></g><!--MD5=[cf4d6237fcae255cd2e1656cf84a30e2]
class Order--><g id="elem_Order"><rect codeLine="52" fill="#F1F1F1" height="129.4844" id="Order" rx="2.5" ry="2.5" style="stroke:#181818;stroke-width:0.5;" width="170" x="356.5" y="242.7969"/><ellipse cx="417.75" cy="258.7969" fill="#ADD1B2" rx="11" ry="11" style="stroke:#181818;stroke-width:1.0;"/><path d="M421.8594,264.7969 L414.1406,264.7969 L414.1406,252.4063 L421.8594,252.4063 L421.8594,254.5625 L416.5938,254.5625 L416.5938,257.2344 L421.3594,257.2344 L421.3594,259.3906 L416.5938,259.3906 L416.5938,262.6406 L421.8594,262.6406 L421.8594,264.7969 Z " fill="#000000"/><text fill="#000000" font-family="sans-serif" font-size="14" lengthAdjust="spacing" textLength="39" x="438.25" y="263.6436">Order</text><line style="stroke:#181818;stroke-width:0.5;" x1="357.5" x2="525.5" y1="274.7969" y2="274.7969"/><text fill="#000000" font-family="sans-serif" font-size="14" lengthAdjust="spacing" textLength="35" x="362.5" y="291.792">Int ID</text><text fill="#000000" font-family="sans-serif" font-size="14" lengthAdjust="spacing" textLength="125" x="362.5" y="308.0889">Int ShippingCostId</text><text fill="#000000" font-family="sans-serif" font-size="14" lengthAdjust="spacing" textLength="65" x="362.5" y="324.3857">Int UserId</text><text fill="#000000" font-family="sans-serif" font-size="14" lengthAdjust="spacing" textLength="155" x="362.5" y="340.6826">String DeliveryAddress</text><text fill="#000000" font-family="sans-serif" font-size="14" lengthAdjust="spacing" textLength="158" x="362.5" y="356.9795">String InvocingAddress</text><line style="stroke:#181818;stroke-width:0.5;" x1="357.5" x2="525.5" y1="364.2813" y2="364.2813"/></g><!--MD5=[057726cf5a7b0036039cd1ed4902be71]
class OrderLine--><g id="elem_OrderLine"><rect codeLine="61" fill="#F1F1F1" height="80.5938" id="OrderLine" rx="2.5" ry="2.5" style="stroke:#181818;stroke-width:0.5;" width="99" x="256" y="44.2969"/><ellipse cx="271" cy="60.2969" fill="#ADD1B2" rx="11" ry="11" style="stroke:#181818;stroke-width:1.0;"/><path d="M275.1094,66.2969 L267.3906,66.2969 L267.3906,53.9063 L275.1094,53.9063 L275.1094,56.0625 L269.8438,56.0625 L269.8438,58.7344 L274.6094,58.7344 L274.6094,60.8906 L269.8438,60.8906 L269.8438,64.1406 L275.1094,64.1406 L275.1094,66.2969 Z " fill="#000000"/><text fill="#000000" font-family="sans-serif" font-size="14" lengthAdjust="spacing" textLength="67" x="285" y="65.1436">OrderLine</text><line style="stroke:#181818;stroke-width:0.5;" x1="257" x2="354" y1="76.2969" y2="76.2969"/><text fill="#000000" font-family="sans-serif" font-size="14" lengthAdjust="spacing" textLength="72" x="262" y="93.292">Int OrderId</text><text fill="#000000" font-family="sans-serif" font-size="14" lengthAdjust="spacing" textLength="76" x="262" y="109.5889">Int AlbumId</text><line style="stroke:#181818;stroke-width:0.5;" x1="257" x2="354" y1="116.8906" y2="116.8906"/></g><!--MD5=[32eff29decd4c7e568e6e5cc54a2589a]
reverse link OrderLine to Order--><g id="link_OrderLine_Order"><path codeLine="67" d="M334.34,132.5569 C354.12,164.6169 380.6,207.5669 402.29,242.7269 " fill="none" id="OrderLine-backto-Order" style="stroke:#181818;stroke-width:1.0;"/><line style="stroke:#181818;stroke-width:1.0;" x1="335.7504" x2="329.97" y1="134.8357" y2="125.4769"/><ellipse cx="335.7504" cy="134.8357" fill="none" rx="4" ry="4" style="stroke:#181818;stroke-width:1.0;"/><line style="stroke:#181818;stroke-width:1.0;" x1="328.6688" x2="335.4752" y1="130.982" y2="126.7781"/></g><!--MD5=[7822c378497c295d3b55f1945c4d15d2]
reverse link OrderLine to Album--><g id="link_OrderLine_Album"><path codeLine="68" d="M285.2,132.9169 C278.48,148.5069 270.67,166.6369 262.68,185.1869 " fill="none" id="OrderLine-backto-Album" style="stroke:#181818;stroke-width:1.0;"/><line style="stroke:#181818;stroke-width:1.0;" x1="284.0485" x2="288.41" y1="135.5752" y2="125.4769"/><ellipse cx="284.0485" cy="135.5752" fill="none" rx="4" ry="4" style="stroke:#181818;stroke-width:1.0;"/><line style="stroke:#181818;stroke-width:1.0;" x1="283.1519" x2="290.4961" y1="127.563" y2="130.735"/></g><!--MD5=[e24aee972611f650b83da051c892251f]
reverse link Order to User--><g id="link_Order_User"><path codeLine="69" d="M441.5,379.0469 C441.5,413.4369 441.5,454.6969 441.5,489.2569 " fill="none" id="Order-backto-User" style="stroke:#181818;stroke-width:1.0;"/><line style="stroke:#181818;stroke-width:1.0;" x1="437.5" x2="445.5" y1="375.8169" y2="375.8169"/><line style="stroke:#181818;stroke-width:1.0;" x1="437.5" x2="445.5" y1="378.8169" y2="378.8169"/><line style="stroke:#181818;stroke-width:1.0;" x1="441.5" x2="441.5" y1="379.8169" y2="371.8169"/></g><!--MD5=[e72eec71de9d056e383ff54d230a9ad1]
reverse link Order to ShippingCost--><g id="link_Order_ShippingCost"><path codeLine="70" d="M485.55,377.9569 C514.76,424.1369 552.03,483.0769 576.32,521.4769 " fill="none" id="Order-backto-ShippingCost" style="stroke:#181818;stroke-width:1.0;"/><line style="stroke:#181818;stroke-width:1.0;" x1="480.429" x2="487.1891" y1="377.3359" y2="373.0578"/><line style="stroke:#181818;stroke-width:1.0;" x1="482.0333" x2="488.7933" y1="379.8709" y2="375.5929"/><line style="stroke:#181818;stroke-width:1.0;" x1="485.9481" x2="481.67" y1="378.5769" y2="371.8169"/></g><!--MD5=[1ae211e5268bc162cc92b09fefea8b48]
reverse link Album to Format--><g id="link_Album_Format"><path codeLine="71" d="M253.49,436.2469 C262.76,463.8569 272.01,491.3769 279.45,513.5369 " fill="none" id="Album-backto-Format" style="stroke:#181818;stroke-width:1.0;"/><line style="stroke:#181818;stroke-width:1.0;" x1="248.74" x2="256.3245" y1="434.6714" y2="432.1269"/><line style="stroke:#181818;stroke-width:1.0;" x1="249.6942" x2="257.2787" y1="437.5156" y2="434.9711"/><line style="stroke:#181818;stroke-width:1.0;" x1="253.8045" x2="251.26" y1="437.1914" y2="429.6069"/></g><!--MD5=[74eaab71cfc932fbefa0e65668b4c6fc]
reverse link Album to Label--><g id="link_Album_Label"><path codeLine="72" d="M189.7,436.6269 C184.69,467.5369 179.71,498.2969 175.94,521.5369 " fill="none" id="Album-backto-Label" style="stroke:#181818;stroke-width:1.0;"/><line style="stroke:#181818;stroke-width:1.0;" x1="186.2545" x2="194.1526" y1="432.9195" y2="434.1923"/><line style="stroke:#181818;stroke-width:1.0;" x1="185.7772" x2="193.6753" y1="435.8813" y2="437.1541"/><line style="stroke:#181818;stroke-width:1.0;" x1="189.5672" x2="190.84" y1="437.505" y2="429.6069"/></g><!--MD5=[3ac61a45ed94e133dc40c78a5ef5b262]
reverse link Album to Artist--><g id="link_Album_Artist"><path codeLine="73" d="M135.62,425.9669 C113.71,460.3869 91.25,495.6869 74.76,521.5969 " fill="none" id="Album-backto-Artist" style="stroke:#181818;stroke-width:1.0;"/><line style="stroke:#181818;stroke-width:1.0;" x1="133.8875" x2="140.6354" y1="421.2323" y2="425.5294"/><line style="stroke:#181818;stroke-width:1.0;" x1="132.276" x2="139.024" y1="423.7628" y2="428.0599"/><line style="stroke:#181818;stroke-width:1.0;" x1="135.1129" x2="139.41" y1="426.7548" y2="420.0069"/></g><!--MD5=[c7396859691180ea7fe52d0d4d4f7666]
@startuml
title Out Of Print - Database

entity User
{
  Int ID
  String Email
  String FirstName
  String LastName
  String Password
  String Address
}

entity Artist {
  Int ID
  String Title
}

entity ShippingCost
{
  Int ID
  Decimal Price
}

entity Label
{
  Int ID
  String Title
}

entity Album {
  Int ID
  Int ArtistId
  Int LabelId
  Int FormatId
  String Title
  Date Year
  String Edition
  // Image[] Images
  String Details
  String Condition
  String SoundFileUri
  Decimal Price
}

entity Format
{
  Int ID
  String Title
  Float Weight
}

entity Order
{
  Int ID
  Int ShippingCostId
  Int UserId
  String DeliveryAddress
  String InvocingAddress
}

entity OrderLine
{
  Int OrderId
  Int AlbumId
}

OrderLine |o- - Order
OrderLine |o- - Album
Order ||- - User
Order ||- - ShippingCost
Album ||- - Format
Album ||- - Label
Album ||- - Artist
@enduml

PlantUML version 1.2022.7(Mon Aug 22 17:01:30 UTC 2022)
(GPL source distribution)
Java Runtime: OpenJDK Runtime Environment
JVM: OpenJDK 64-Bit Server VM
Default Encoding: UTF-8
Language: en
Country: null
--></g></svg>