<?xml version="1.0" encoding="UTF-8" standalone="no"?><svg xmlns="http://www.w3.org/2000/svg" xmlns:xlink="http://www.w3.org/1999/xlink" contentStyleType="text/css" height="1258px" preserveAspectRatio="none" style="width:580px;height:1258px;background:#FFFFFF;" version="1.1" viewBox="0 0 580 1258" width="580px" zoomAndPan="magnify"><defs/><g><rect fill="none" height="26.2969" id="_title" style="stroke:none;stroke-width:1.0;" width="230" x="168" y="5"/><text fill="#000000" font-family="sans-serif" font-size="14" font-weight="bold" lengthAdjust="spacing" textLength="220" x="173" y="22.9951">Out Of Print - Class Diagram</text><!--MD5=[b79fd03ff18d3ae0e30238b519968545]
class OutOfPrintShop--><g id="elem_OutOfPrintShop"><rect codeLine="3" fill="#F1F1F1" height="96.8906" id="OutOfPrintShop" rx="2.5" ry="2.5" style="stroke:#181818;stroke-width:0.5;" width="308" x="83" y="44.2969"/><ellipse cx="179.25" cy="60.2969" fill="#ADD1B2" rx="11" ry="11" style="stroke:#181818;stroke-width:1.0;"/><path d="M182.2188,65.9375 Q181.6406,66.2344 181,66.375 Q180.3594,66.5313 179.6563,66.5313 Q177.1563,66.5313 175.8281,64.8906 Q174.5156,63.2344 174.5156,60.1094 Q174.5156,56.9844 175.8281,55.3281 Q177.1563,53.6719 179.6563,53.6719 Q180.3594,53.6719 181,53.8281 Q181.6563,53.9844 182.2188,54.2813 L182.2188,57 Q181.5938,56.4219 181,56.1563 Q180.4063,55.875 179.7813,55.875 Q178.4375,55.875 177.75,56.9531 Q177.0625,58.0156 177.0625,60.1094 Q177.0625,62.2031 177.75,63.2813 Q178.4375,64.3438 179.7813,64.3438 Q180.4063,64.3438 181,64.0781 Q181.5938,63.7969 182.2188,63.2188 L182.2188,65.9375 Z " fill="#000000"/><text fill="#000000" font-family="sans-serif" font-size="14" lengthAdjust="spacing" textLength="107" x="199.75" y="65.1436">OutOfPrintShop</text><line style="stroke:#181818;stroke-width:0.5;" x1="84" x2="390" y1="76.2969" y2="76.2969"/><ellipse cx="94" cy="89.9453" fill="none" rx="3" ry="3" style="stroke:#038048;stroke-width:1.0;"/><text fill="#000000" font-family="sans-serif" font-size="14" lengthAdjust="spacing" textLength="108" x="103" y="93.292">Album[] Albums</text><ellipse cx="94" cy="106.2422" fill="none" rx="3" ry="3" style="stroke:#038048;stroke-width:1.0;"/><text fill="#000000" font-family="sans-serif" font-size="14" lengthAdjust="spacing" textLength="86" x="103" y="109.5889">User[] Users</text><line style="stroke:#181818;stroke-width:0.5;" x1="84" x2="390" y1="116.8906" y2="116.8906"/><ellipse cx="94" cy="130.5391" fill="#84BE84" rx="3" ry="3" style="stroke:#038048;stroke-width:1.0;"/><text fill="#000000" font-family="sans-serif" font-size="14" lengthAdjust="spacing" textLength="282" x="103" y="133.8857">User Login(String email, String password)</text></g><!--MD5=[8ae2c2db09eb731972ab511bcae12bf3]
class Artist--><g id="elem_Artist"><rect codeLine="10" fill="#F1F1F1" height="113.1875" id="Artist" rx="2.5" ry="2.5" style="stroke:#181818;stroke-width:0.5;" width="134" x="439" y="472.2969"/><ellipse cx="484.25" cy="488.2969" fill="#ADD1B2" rx="11" ry="11" style="stroke:#181818;stroke-width:1.0;"/><path d="M487.2188,493.9375 Q486.6406,494.2344 486,494.375 Q485.3594,494.5313 484.6563,494.5313 Q482.1563,494.5313 480.8281,492.8906 Q479.5156,491.2344 479.5156,488.1094 Q479.5156,484.9844 480.8281,483.3281 Q482.1563,481.6719 484.6563,481.6719 Q485.3594,481.6719 486,481.8281 Q486.6563,481.9844 487.2188,482.2813 L487.2188,485 Q486.5938,484.4219 486,484.1563 Q485.4063,483.875 484.7813,483.875 Q483.4375,483.875 482.75,484.9531 Q482.0625,486.0156 482.0625,488.1094 Q482.0625,490.2031 482.75,491.2813 Q483.4375,492.3438 484.7813,492.3438 Q485.4063,492.3438 486,492.0781 Q486.5938,491.7969 487.2188,491.2188 L487.2188,493.9375 Z " fill="#000000"/><text fill="#000000" font-family="sans-serif" font-size="14" lengthAdjust="spacing" textLength="35" x="504.75" y="493.1436">Artist</text><line style="stroke:#181818;stroke-width:0.5;" x1="440" x2="572" y1="504.2969" y2="504.2969"/><rect fill="none" height="6" style="stroke:#C82930;stroke-width:1.0;" width="6" x="447" y="514.9453"/><text fill="#000000" font-family="sans-serif" font-size="14" lengthAdjust="spacing" textLength="33" x="459" y="521.292">Int Id</text><ellipse cx="450" cy="534.2422" fill="none" rx="3" ry="3" style="stroke:#038048;stroke-width:1.0;"/><text fill="#000000" font-family="sans-serif" font-size="14" lengthAdjust="spacing" textLength="73" x="459" y="537.5889">String Title</text><ellipse cx="450" cy="550.5391" fill="none" rx="3" ry="3" style="stroke:#038048;stroke-width:1.0;"/><text fill="#000000" font-family="sans-serif" font-size="14" lengthAdjust="spacing" textLength="108" x="459" y="553.8857">Album[] Albums</text><line style="stroke:#181818;stroke-width:0.5;" x1="440" x2="572" y1="561.1875" y2="561.1875"/><ellipse cx="450" cy="574.8359" fill="#84BE84" rx="3" ry="3" style="stroke:#038048;stroke-width:1.0;"/><text fill="#000000" font-family="sans-serif" font-size="14" lengthAdjust="spacing" textLength="104" x="459" y="578.1826">Label[] Labels()</text></g><!--MD5=[3fd616f346a44cd59a91eb10b19e157c]
class User--><g id="elem_User"><rect codeLine="17" fill="#F1F1F1" height="162.0781" id="User" rx="2.5" ry="2.5" style="stroke:#181818;stroke-width:0.5;" width="205" x="56.5" y="201.2969"/><ellipse cx="138.75" cy="217.2969" fill="#ADD1B2" rx="11" ry="11" style="stroke:#181818;stroke-width:1.0;"/><path d="M141.7188,222.9375 Q141.1406,223.2344 140.5,223.375 Q139.8594,223.5313 139.1563,223.5313 Q136.6563,223.5313 135.3281,221.8906 Q134.0156,220.2344 134.0156,217.1094 Q134.0156,213.9844 135.3281,212.3281 Q136.6563,210.6719 139.1563,210.6719 Q139.8594,210.6719 140.5,210.8281 Q141.1563,210.9844 141.7188,211.2813 L141.7188,214 Q141.0938,213.4219 140.5,213.1563 Q139.9063,212.875 139.2813,212.875 Q137.9375,212.875 137.25,213.9531 Q136.5625,215.0156 136.5625,217.1094 Q136.5625,219.2031 137.25,220.2813 Q137.9375,221.3438 139.2813,221.3438 Q139.9063,221.3438 140.5,221.0781 Q141.0938,220.7969 141.7188,220.2188 L141.7188,222.9375 Z " fill="#000000"/><text fill="#000000" font-family="sans-serif" font-size="14" lengthAdjust="spacing" textLength="32" x="159.25" y="222.1436">User</text><line style="stroke:#181818;stroke-width:0.5;" x1="57.5" x2="260.5" y1="233.2969" y2="233.2969"/><rect fill="none" height="6" style="stroke:#C82930;stroke-width:1.0;" width="6" x="64.5" y="243.9453"/><text fill="#000000" font-family="sans-serif" font-size="14" lengthAdjust="spacing" textLength="33" x="76.5" y="250.292">Int Id</text><ellipse cx="67.5" cy="263.2422" fill="none" rx="3" ry="3" style="stroke:#038048;stroke-width:1.0;"/><text fill="#000000" font-family="sans-serif" font-size="14" lengthAdjust="spacing" textLength="113" x="76.5" y="266.5889">String FirstName</text><ellipse cx="67.5" cy="279.5391" fill="none" rx="3" ry="3" style="stroke:#038048;stroke-width:1.0;"/><text fill="#000000" font-family="sans-serif" font-size="14" lengthAdjust="spacing" textLength="112" x="76.5" y="282.8857">String LastName</text><ellipse cx="67.5" cy="295.8359" fill="none" rx="3" ry="3" style="stroke:#038048;stroke-width:1.0;"/><text fill="#000000" font-family="sans-serif" font-size="14" lengthAdjust="spacing" textLength="80" x="76.5" y="299.1826">String Email</text><ellipse cx="67.5" cy="312.1328" fill="none" rx="3" ry="3" style="stroke:#038048;stroke-width:1.0;"/><text fill="#000000" font-family="sans-serif" font-size="14" lengthAdjust="spacing" textLength="111" x="76.5" y="315.4795">String Password</text><ellipse cx="67.5" cy="328.4297" fill="none" rx="3" ry="3" style="stroke:#038048;stroke-width:1.0;"/><text fill="#000000" font-family="sans-serif" font-size="14" lengthAdjust="spacing" textLength="179" x="76.5" y="331.7764">String Address // Not Sure</text><line style="stroke:#181818;stroke-width:0.5;" x1="57.5" x2="260.5" y1="339.0781" y2="339.0781"/><ellipse cx="67.5" cy="352.7266" fill="#84BE84" rx="3" ry="3" style="stroke:#038048;stroke-width:1.0;"/><text fill="#000000" font-family="sans-serif" font-size="14" lengthAdjust="spacing" textLength="110" x="76.5" y="356.0732">Order[] Orders()</text></g><!--MD5=[eae91a105560dd2fa82c32dc3c32053e]
class ShippingCost--><g id="elem_ShippingCost"><rect codeLine="28" fill="#F1F1F1" height="80.5938" id="ShippingCost" rx="2.5" ry="2.5" style="stroke:#181818;stroke-width:0.5;" width="124" x="7" y="710.2969"/><ellipse cx="22" cy="726.2969" fill="#ADD1B2" rx="11" ry="11" style="stroke:#181818;stroke-width:1.0;"/><path d="M24.9688,731.9375 Q24.3906,732.2344 23.75,732.375 Q23.1094,732.5313 22.4063,732.5313 Q19.9063,732.5313 18.5781,730.8906 Q17.2656,729.2344 17.2656,726.1094 Q17.2656,722.9844 18.5781,721.3281 Q19.9063,719.6719 22.4063,719.6719 Q23.1094,719.6719 23.75,719.8281 Q24.4063,719.9844 24.9688,720.2813 L24.9688,723 Q24.3438,722.4219 23.75,722.1563 Q23.1563,721.875 22.5313,721.875 Q21.1875,721.875 20.5,722.9531 Q19.8125,724.0156 19.8125,726.1094 Q19.8125,728.2031 20.5,729.2813 Q21.1875,730.3438 22.5313,730.3438 Q23.1563,730.3438 23.75,730.0781 Q24.3438,729.7969 24.9688,729.2188 L24.9688,731.9375 Z " fill="#000000"/><text fill="#000000" font-family="sans-serif" font-size="14" lengthAdjust="spacing" textLength="92" x="36" y="731.1436">ShippingCost</text><line style="stroke:#181818;stroke-width:0.5;" x1="8" x2="130" y1="742.2969" y2="742.2969"/><rect fill="none" height="6" style="stroke:#C82930;stroke-width:1.0;" width="6" x="15" y="752.9453"/><text fill="#000000" font-family="sans-serif" font-size="14" lengthAdjust="spacing" textLength="37" x="27" y="759.292">Int Id,</text><ellipse cx="18" cy="772.2422" fill="none" rx="3" ry="3" style="stroke:#038048;stroke-width:1.0;"/><text fill="#000000" font-family="sans-serif" font-size="14" lengthAdjust="spacing" textLength="93" x="27" y="775.5889">Decimal Price</text><line style="stroke:#181818;stroke-width:0.5;" x1="8" x2="130" y1="782.8906" y2="782.8906"/></g><!--MD5=[e84c991d4d3bbf916ee1653c86a9249d]
class Label--><g id="elem_Label"><rect codeLine="34" fill="#F1F1F1" height="113.1875" id="Label" rx="2.5" ry="2.5" style="stroke:#181818;stroke-width:0.5;" width="144" x="372" y="694.2969"/><ellipse cx="421.75" cy="710.2969" fill="#ADD1B2" rx="11" ry="11" style="stroke:#181818;stroke-width:1.0;"/><path d="M424.7188,715.9375 Q424.1406,716.2344 423.5,716.375 Q422.8594,716.5313 422.1563,716.5313 Q419.6563,716.5313 418.3281,714.8906 Q417.0156,713.2344 417.0156,710.1094 Q417.0156,706.9844 418.3281,705.3281 Q419.6563,703.6719 422.1563,703.6719 Q422.8594,703.6719 423.5,703.8281 Q424.1563,703.9844 424.7188,704.2813 L424.7188,707 Q424.0938,706.4219 423.5,706.1563 Q422.9063,705.875 422.2813,705.875 Q420.9375,705.875 420.25,706.9531 Q419.5625,708.0156 419.5625,710.1094 Q419.5625,712.2031 420.25,713.2813 Q420.9375,714.3438 422.2813,714.3438 Q422.9063,714.3438 423.5,714.0781 Q424.0938,713.7969 424.7188,713.2188 L424.7188,715.9375 Z " fill="#000000"/><text fill="#000000" font-family="sans-serif" font-size="14" lengthAdjust="spacing" textLength="36" x="442.25" y="715.1436">Label</text><line style="stroke:#181818;stroke-width:0.5;" x1="373" x2="515" y1="726.2969" y2="726.2969"/><rect fill="none" height="6" style="stroke:#C82930;stroke-width:1.0;" width="6" x="380" y="736.9453"/><text fill="#000000" font-family="sans-serif" font-size="14" lengthAdjust="spacing" textLength="33" x="392" y="743.292">Int Id</text><ellipse cx="383" cy="756.2422" fill="none" rx="3" ry="3" style="stroke:#038048;stroke-width:1.0;"/><text fill="#000000" font-family="sans-serif" font-size="14" lengthAdjust="spacing" textLength="73" x="392" y="759.5889">String Title</text><line style="stroke:#181818;stroke-width:0.5;" x1="373" x2="515" y1="766.8906" y2="766.8906"/><ellipse cx="383" cy="780.5391" fill="#84BE84" rx="3" ry="3" style="stroke:#038048;stroke-width:1.0;"/><text fill="#000000" font-family="sans-serif" font-size="14" lengthAdjust="spacing" textLength="118" x="392" y="783.8857">Album[] Albums()</text><ellipse cx="383" cy="796.8359" fill="#84BE84" rx="3" ry="3" style="stroke:#038048;stroke-width:1.0;"/><text fill="#000000" font-family="sans-serif" font-size="14" lengthAdjust="spacing" textLength="102" x="392" y="800.1826">Artist[] Artists()</text></g><!--MD5=[7560274dc4d8b0cfc2c0496e7291d5fc]
class Album--><g id="elem_Album"><rect codeLine="42" fill="#F1F1F1" height="227.2656" id="Album" rx="2.5" ry="2.5" style="stroke:#181818;stroke-width:0.5;" width="156" x="303" y="867.2969"/><ellipse cx="355.25" cy="883.2969" fill="#ADD1B2" rx="11" ry="11" style="stroke:#181818;stroke-width:1.0;"/><path d="M358.2188,888.9375 Q357.6406,889.2344 357,889.375 Q356.3594,889.5313 355.6563,889.5313 Q353.1563,889.5313 351.8281,887.8906 Q350.5156,886.2344 350.5156,883.1094 Q350.5156,879.9844 351.8281,878.3281 Q353.1563,876.6719 355.6563,876.6719 Q356.3594,876.6719 357,876.8281 Q357.6563,876.9844 358.2188,877.2813 L358.2188,880 Q357.5938,879.4219 357,879.1563 Q356.4063,878.875 355.7813,878.875 Q354.4375,878.875 353.75,879.9531 Q353.0625,881.0156 353.0625,883.1094 Q353.0625,885.2031 353.75,886.2813 Q354.4375,887.3438 355.7813,887.3438 Q356.4063,887.3438 357,887.0781 Q357.5938,886.7969 358.2188,886.2188 L358.2188,888.9375 Z " fill="#000000"/><text fill="#000000" font-family="sans-serif" font-size="14" lengthAdjust="spacing" textLength="43" x="375.75" y="888.1436">Album</text><line style="stroke:#181818;stroke-width:0.5;" x1="304" x2="458" y1="899.2969" y2="899.2969"/><rect fill="none" height="6" style="stroke:#C82930;stroke-width:1.0;" width="6" x="311" y="909.9453"/><text fill="#000000" font-family="sans-serif" font-size="14" lengthAdjust="spacing" textLength="68" x="323" y="916.292">Int ArtistId</text><rect fill="none" height="6" style="stroke:#C82930;stroke-width:1.0;" width="6" x="311" y="926.2422"/><text fill="#000000" font-family="sans-serif" font-size="14" lengthAdjust="spacing" textLength="69" x="323" y="932.5889">Int LabelId</text><rect fill="none" height="6" style="stroke:#C82930;stroke-width:1.0;" width="6" x="311" y="942.5391"/><text fill="#000000" font-family="sans-serif" font-size="14" lengthAdjust="spacing" textLength="81" x="323" y="948.8857">Int FormatId</text><ellipse cx="314" cy="961.8359" fill="none" rx="3" ry="3" style="stroke:#038048;stroke-width:1.0;"/><text fill="#000000" font-family="sans-serif" font-size="14" lengthAdjust="spacing" textLength="73" x="323" y="965.1826">String Title</text><ellipse cx="314" cy="978.1328" fill="none" rx="3" ry="3" style="stroke:#038048;stroke-width:1.0;"/><text fill="#000000" font-family="sans-serif" font-size="14" lengthAdjust="spacing" textLength="68" x="323" y="981.4795">Date Year</text><ellipse cx="314" cy="994.4297" fill="none" rx="3" ry="3" style="stroke:#038048;stroke-width:1.0;"/><text fill="#000000" font-family="sans-serif" font-size="14" lengthAdjust="spacing" textLength="91" x="323" y="997.7764">String Edition</text><ellipse cx="314" cy="1010.7266" fill="none" rx="3" ry="3" style="stroke:#038048;stroke-width:1.0;"/><text fill="#000000" font-family="sans-serif" font-size="14" lengthAdjust="spacing" textLength="106" x="323" y="1014.0732">Image[] Images</text><ellipse cx="314" cy="1027.0234" fill="none" rx="3" ry="3" style="stroke:#038048;stroke-width:1.0;"/><text fill="#000000" font-family="sans-serif" font-size="14" lengthAdjust="spacing" textLength="91" x="323" y="1030.3701">String Details</text><ellipse cx="314" cy="1043.3203" fill="none" rx="3" ry="3" style="stroke:#038048;stroke-width:1.0;"/><text fill="#000000" font-family="sans-serif" font-size="14" lengthAdjust="spacing" textLength="110" x="323" y="1046.667">String Condition</text><ellipse cx="314" cy="1059.6172" fill="none" rx="3" ry="3" style="stroke:#038048;stroke-width:1.0;"/><text fill="#000000" font-family="sans-serif" font-size="14" lengthAdjust="spacing" textLength="130" x="323" y="1062.9639">String SoundFileUri</text><ellipse cx="314" cy="1075.9141" fill="none" rx="3" ry="3" style="stroke:#038048;stroke-width:1.0;"/><text fill="#000000" font-family="sans-serif" font-size="14" lengthAdjust="spacing" textLength="93" x="323" y="1079.2607">Decimal Price</text><line style="stroke:#181818;stroke-width:0.5;" x1="304" x2="458" y1="1086.5625" y2="1086.5625"/></g><!--MD5=[f144808e0e29279a3117e64f7a82a4df]
class Format--><g id="elem_Format"><rect codeLine="56" fill="#F1F1F1" height="96.8906" id="Format" rx="2.5" ry="2.5" style="stroke:#181818;stroke-width:0.5;" width="111" x="325.5" y="1154.2969"/><ellipse cx="354.45" cy="1170.2969" fill="#ADD1B2" rx="11" ry="11" style="stroke:#181818;stroke-width:1.0;"/><path d="M357.4188,1175.9375 Q356.8406,1176.2344 356.2,1176.375 Q355.5594,1176.5313 354.8563,1176.5313 Q352.3563,1176.5313 351.0281,1174.8906 Q349.7156,1173.2344 349.7156,1170.1094 Q349.7156,1166.9844 351.0281,1165.3281 Q352.3563,1163.6719 354.8563,1163.6719 Q355.5594,1163.6719 356.2,1163.8281 Q356.8563,1163.9844 357.4188,1164.2813 L357.4188,1167 Q356.7938,1166.4219 356.2,1166.1563 Q355.6063,1165.875 354.9813,1165.875 Q353.6375,1165.875 352.95,1166.9531 Q352.2625,1168.0156 352.2625,1170.1094 Q352.2625,1172.2031 352.95,1173.2813 Q353.6375,1174.3438 354.9813,1174.3438 Q355.6063,1174.3438 356.2,1174.0781 Q356.7938,1173.7969 357.4188,1173.2188 L357.4188,1175.9375 Z " fill="#000000"/><text fill="#000000" font-family="sans-serif" font-size="14" lengthAdjust="spacing" textLength="48" x="371.55" y="1175.1436">Format</text><line style="stroke:#181818;stroke-width:0.5;" x1="326.5" x2="435.5" y1="1186.2969" y2="1186.2969"/><rect fill="none" height="6" style="stroke:#C82930;stroke-width:1.0;" width="6" x="333.5" y="1196.9453"/><text fill="#000000" font-family="sans-serif" font-size="14" lengthAdjust="spacing" textLength="33" x="345.5" y="1203.292">Int Id</text><ellipse cx="336.5" cy="1216.2422" fill="none" rx="3" ry="3" style="stroke:#038048;stroke-width:1.0;"/><text fill="#000000" font-family="sans-serif" font-size="14" lengthAdjust="spacing" textLength="85" x="345.5" y="1219.5889">Float Weight</text><ellipse cx="336.5" cy="1232.5391" fill="none" rx="3" ry="3" style="stroke:#038048;stroke-width:1.0;"/><text fill="#000000" font-family="sans-serif" font-size="14" lengthAdjust="spacing" textLength="73" x="345.5" y="1235.8857">String Title</text><line style="stroke:#181818;stroke-width:0.5;" x1="326.5" x2="435.5" y1="1243.1875" y2="1243.1875"/></g><!--MD5=[cf4d6237fcae255cd2e1656cf84a30e2]
class Order--><g id="elem_Order"><rect codeLine="63" fill="#F1F1F1" height="210.9688" id="Order" rx="2.5" ry="2.5" style="stroke:#181818;stroke-width:0.5;" width="224" x="42" y="423.2969"/><ellipse cx="130.25" cy="439.2969" fill="#ADD1B2" rx="11" ry="11" style="stroke:#181818;stroke-width:1.0;"/><path d="M133.2188,444.9375 Q132.6406,445.2344 132,445.375 Q131.3594,445.5313 130.6563,445.5313 Q128.1563,445.5313 126.8281,443.8906 Q125.5156,442.2344 125.5156,439.1094 Q125.5156,435.9844 126.8281,434.3281 Q128.1563,432.6719 130.6563,432.6719 Q131.3594,432.6719 132,432.8281 Q132.6563,432.9844 133.2188,433.2813 L133.2188,436 Q132.5938,435.4219 132,435.1563 Q131.4063,434.875 130.7813,434.875 Q129.4375,434.875 128.75,435.9531 Q128.0625,437.0156 128.0625,439.1094 Q128.0625,441.2031 128.75,442.2813 Q129.4375,443.3438 130.7813,443.3438 Q131.4063,443.3438 132,443.0781 Q132.5938,442.7969 133.2188,442.2188 L133.2188,444.9375 Z " fill="#000000"/><text fill="#000000" font-family="sans-serif" font-size="14" lengthAdjust="spacing" textLength="39" x="150.75" y="444.1436">Order</text><line style="stroke:#181818;stroke-width:0.5;" x1="43" x2="265" y1="455.2969" y2="455.2969"/><rect fill="none" height="6" style="stroke:#C82930;stroke-width:1.0;" width="6" x="50" y="465.9453"/><text fill="#000000" font-family="sans-serif" font-size="14" lengthAdjust="spacing" textLength="33" x="62" y="472.292">Int Id</text><rect fill="none" height="6" style="stroke:#C82930;stroke-width:1.0;" width="6" x="50" y="482.2422"/><text fill="#000000" font-family="sans-serif" font-size="14" lengthAdjust="spacing" textLength="125" x="62" y="488.5889">Int ShippingCostId</text><ellipse cx="53" cy="501.5391" fill="none" rx="3" ry="3" style="stroke:#038048;stroke-width:1.0;"/><text fill="#000000" font-family="sans-serif" font-size="14" lengthAdjust="spacing" textLength="65" x="62" y="504.8857">Int UserId</text><text fill="#000000" font-family="sans-serif" font-size="14" lengthAdjust="spacing" textLength="4" x="62" y="521.1826"> </text><ellipse cx="53" cy="534.1328" fill="none" rx="3" ry="3" style="stroke:#038048;stroke-width:1.0;"/><text fill="#000000" font-family="sans-serif" font-size="14" lengthAdjust="spacing" textLength="155" x="62" y="537.4795">String DeliveryAddress</text><ellipse cx="53" cy="550.4297" fill="none" rx="3" ry="3" style="stroke:#038048;stroke-width:1.0;"/><text fill="#000000" font-family="sans-serif" font-size="14" lengthAdjust="spacing" textLength="158" x="62" y="553.7764">String InvocingAddress</text><ellipse cx="53" cy="566.7266" fill="none" rx="3" ry="3" style="stroke:#038048;stroke-width:1.0;"/><text fill="#000000" font-family="sans-serif" font-size="14" lengthAdjust="spacing" textLength="156" x="62" y="570.0732">OrderLine[] OrderLines</text><ellipse cx="53" cy="583.0234" fill="none" rx="3" ry="3" style="stroke:#038048;stroke-width:1.0;"/><text fill="#000000" font-family="sans-serif" font-size="14" lengthAdjust="spacing" textLength="68" x="62" y="586.3701">User User</text><line style="stroke:#181818;stroke-width:0.5;" x1="43" x2="265" y1="593.6719" y2="593.6719"/><ellipse cx="53" cy="607.3203" fill="#84BE84" rx="3" ry="3" style="stroke:#038048;stroke-width:1.0;"/><text fill="#000000" font-family="sans-serif" font-size="14" lengthAdjust="spacing" textLength="137" x="62" y="610.667">Decimal TotalPrice()</text><ellipse cx="53" cy="623.6172" fill="#84BE84" rx="3" ry="3" style="stroke:#038048;stroke-width:1.0;"/><text fill="#000000" font-family="sans-serif" font-size="14" lengthAdjust="spacing" textLength="198" x="62" y="626.9639">ShippingCost ShippingCost()</text></g><!--MD5=[057726cf5a7b0036039cd1ed4902be71]
class OrderLine--><g id="elem_OrderLine"><rect codeLine="77" fill="#F1F1F1" height="80.5938" id="OrderLine" rx="2.5" ry="2.5" style="stroke:#181818;stroke-width:0.5;" width="99" x="166.5" y="710.2969"/><ellipse cx="181.5" cy="726.2969" fill="#ADD1B2" rx="11" ry="11" style="stroke:#181818;stroke-width:1.0;"/><path d="M184.4688,731.9375 Q183.8906,732.2344 183.25,732.375 Q182.6094,732.5313 181.9063,732.5313 Q179.4063,732.5313 178.0781,730.8906 Q176.7656,729.2344 176.7656,726.1094 Q176.7656,722.9844 178.0781,721.3281 Q179.4063,719.6719 181.9063,719.6719 Q182.6094,719.6719 183.25,719.8281 Q183.9063,719.9844 184.4688,720.2813 L184.4688,723 Q183.8438,722.4219 183.25,722.1563 Q182.6563,721.875 182.0313,721.875 Q180.6875,721.875 180,722.9531 Q179.3125,724.0156 179.3125,726.1094 Q179.3125,728.2031 180,729.2813 Q180.6875,730.3438 182.0313,730.3438 Q182.6563,730.3438 183.25,730.0781 Q183.8438,729.7969 184.4688,729.2188 L184.4688,731.9375 Z " fill="#000000"/><text fill="#000000" font-family="sans-serif" font-size="14" lengthAdjust="spacing" textLength="67" x="195.5" y="731.1436">OrderLine</text><line style="stroke:#181818;stroke-width:0.5;" x1="167.5" x2="264.5" y1="742.2969" y2="742.2969"/><text fill="#000000" font-family="sans-serif" font-size="14" lengthAdjust="spacing" textLength="72" x="172.5" y="759.292">Int OrderId</text><text fill="#000000" font-family="sans-serif" font-size="14" lengthAdjust="spacing" textLength="76" x="172.5" y="775.5889">Int AlbumId</text><line style="stroke:#181818;stroke-width:0.5;" x1="167.5" x2="264.5" y1="782.8906" y2="782.8906"/></g><!--MD5=[4e4fdf8c0aafd26c49dd2738bc9b4987]
reverse link OutOfPrintShop to Album--><g id="link_OutOfPrintShop_Album"><path codeLine="83" d="M263.5,153.8469 C269.37,169.0769 275.03,185.5869 279,201.2969 C345.56,464.3969 316.34,538.5369 354,807.2969 C356.71,826.6569 359.77,847.2169 362.83,867.1369 " fill="none" id="OutOfPrintShop-backto-Album" style="stroke:#181818;stroke-width:1.0;"/><polygon fill="none" points="258.54,141.3869,257.04,148.4402,262.9739,152.5377,264.4739,145.4843,258.54,141.3869" style="stroke:#181818;stroke-width:1.0;"/></g><!--MD5=[e9d83d7e0d9ff0685ba004293b62f684]
reverse link OutOfPrintShop to User--><g id="link_OutOfPrintShop_User"><path codeLine="84" d="M212,153.8869 C205.74,168.9369 198.93,185.3169 192.33,201.1669 " fill="none" id="OutOfPrintShop-backto-User" style="stroke:#181818;stroke-width:1.0;"/><polygon fill="none" points="217.12,141.5969,211.12,145.5969,212.5046,152.6738,218.5046,148.6738,217.12,141.5969" style="stroke:#181818;stroke-width:1.0;"/></g><!--MD5=[d6b22ec8007db4ed2b4b67ee8e000048]
reverse link Artist to Album--><g id="link_Artist_Album"><path codeLine="85" d="M529.64,598.0369 C545.71,655.6269 559.8,739.3269 534,807.2969 C518.52,848.0869 488.48,885.4169 459.09,914.8369 " fill="none" id="Artist-backto-Album" style="stroke:#181818;stroke-width:1.0;"/><polygon fill="none" points="525.97,585.4369,523.8033,592.3148,529.3189,596.9601,531.4855,590.0822,525.97,585.4369" style="stroke:#181818;stroke-width:1.0;"/></g><!--MD5=[f15fcab7b09fffeca82204c38e30e7e3]
reverse link Artist to Label--><g id="link_Artist_Label"><path codeLine="86" d="M486.74,598.1569 C478.06,628.9169 467.96,664.7869 459.75,693.9169 " fill="none" id="Artist-backto-Label" style="stroke:#181818;stroke-width:1.0;"/><polygon fill="none" points="490.35,585.3169,484.8718,590.0062,487.0934,596.8665,492.5716,592.1772,490.35,585.3169" style="stroke:#181818;stroke-width:1.0;"/></g><!--MD5=[15686ebf0508f9e365d0665429920c16]
reverse link Label to Album--><g id="link_Label_Album"><path codeLine="87" d="M425.09,820.2269 C421,835.0269 416.58,851.0469 412.16,867.0369 " fill="none" id="Label-backto-Album" style="stroke:#181818;stroke-width:1.0;"/><polygon fill="none" points="428.59,807.5769,423.1331,812.2909,425.3858,819.1412,430.8426,814.4271,428.59,807.5769" style="stroke:#181818;stroke-width:1.0;"/></g><!--MD5=[886e22bab51f7976c0e0b0f77c911140]
reverse link User to Order--><g id="link_User_Order"><path codeLine="88" d="M157.09,376.5369 C156.78,391.7569 156.46,407.6069 156.14,423.0769 " fill="none" id="User-backto-Order" style="stroke:#181818;stroke-width:1.0;"/><polygon fill="none" points="157.36,363.3569,153.2356,369.2721,157.1095,375.3543,161.2339,369.4391,157.36,363.3569" style="stroke:#181818;stroke-width:1.0;"/></g><!--MD5=[89886c64ded1b4cb5ba3d356e90c7574]
reverse link Order to OrderLine--><g id="link_Order_OrderLine"><path codeLine="89" d="M187.03,647.0069 C193.46,669.8169 199.77,692.2069 204.85,710.2369 " fill="none" id="Order-backto-OrderLine" style="stroke:#181818;stroke-width:1.0;"/><polygon fill="none" points="183.46,634.3169,181.2384,641.1772,186.7166,645.8665,188.9382,639.0062,183.46,634.3169" style="stroke:#181818;stroke-width:1.0;"/></g><!--MD5=[e72eec71de9d056e383ff54d230a9ad1]
reverse link Order to ShippingCost--><g id="link_Order_ShippingCost"><path codeLine="90" d="M108.84,646.6869 C99.98,669.6069 91.28,692.1169 84.28,710.2369 " fill="none" id="Order-backto-ShippingCost" style="stroke:#181818;stroke-width:1.0;"/><polygon fill="#181818" points="113.62,634.3169,107.7249,638.4699,109.291,645.5088,115.1862,641.3558,113.62,634.3169" style="stroke:#181818;stroke-width:1.0;"/></g><!--MD5=[7822c378497c295d3b55f1945c4d15d2]
reverse link OrderLine to Album--><g id="link_OrderLine_Album"><path codeLine="91" d="M252.49,802.2269 C267.44,822.8669 285.34,847.6069 302.97,871.9769 " fill="none" id="OrderLine-backto-Album" style="stroke:#181818;stroke-width:1.0;"/><polygon fill="#181818" points="244.74,791.5069,245.0149,798.7127,251.7721,801.2305,251.4973,794.0246,244.74,791.5069" style="stroke:#181818;stroke-width:1.0;"/></g><!--MD5=[1ae211e5268bc162cc92b09fefea8b48]
reverse link Album to Format--><g id="link_Album_Format"><path codeLine="92" d="M381,1107.6469 C381,1124.0969 381,1140.0569 381,1154.0269 " fill="none" id="Album-backto-Format" style="stroke:#181818;stroke-width:1.0;"/><polygon fill="#181818" points="381,1094.3769,377,1100.3769,381,1106.3769,385,1100.3769,381,1094.3769" style="stroke:#181818;stroke-width:1.0;"/></g><!--MD5=[d18a9f88f0274ee81b7378b82dd6698b]
@startuml
title Out Of Print - Class Diagram

class OutOfPrintShop
{
  +Album[] Albums
  +User[] Users
  +User Login(String email, String password)
}

class Artist {
  -Int Id
  +String Title
  +Album[] Albums
  +Label[] Labels()
}

class User
{
  -Int Id
  +String FirstName
  +String LastName
  +String Email
  +String Password
  +String Address // Not Sure
  +Order[] Orders()
}

class ShippingCost
{
  -Int Id,
  +Decimal Price
}

class Label
{
  -Int Id
  +String Title
  +Album[] Albums()
  +Artist[] Artists()
}

class Album {
  -Int ArtistId
  -Int LabelId
  -Int FormatId
  +String Title
  +Date Year
  +String Edition
  +Image[] Images
  +String Details
  +String Condition
  +String SoundFileUri
  +Decimal Price
}

class Format
{
  -Int Id
  +Float Weight
  +String Title
}

class Order
{
  -Int Id
  -Int ShippingCostId
  +Int UserId

  +String DeliveryAddress
  +String InvocingAddress
  +OrderLine[] OrderLines
  +User User
  +Decimal TotalPrice()
  +ShippingCost ShippingCost()
}

class OrderLine
{
  Int OrderId
  Int AlbumId
}

OutOfPrintShop o- - Album
OutOfPrintShop o- - User
Artist o- - Album
Artist o- - Label
Label o- - Album
User o- - Order
Order o- - OrderLine
Order *- -  ShippingCost
OrderLine *- -  Album
Album *- - Format
@enduml

PlantUML version 1.2022.7(Mon Aug 22 17:01:30 UTC 2022)
(GPL source distribution)
Java Runtime: OpenJDK Runtime Environment
JVM: OpenJDK 64-Bit Server VM
Default Encoding: UTF-8
Language: en
Country: null
--></g></svg>