<?xml version="1.0" encoding="UTF-8" standalone="no"?><svg xmlns="http://www.w3.org/2000/svg" xmlns:xlink="http://www.w3.org/1999/xlink" contentStyleType="text/css" height="1117px" preserveAspectRatio="none" style="width:559px;height:1117px;background:#FFFFFF;" version="1.1" viewBox="0 0 559 1117" width="559px" zoomAndPan="magnify"><defs/><g><rect fill="none" height="26.2969" id="_title" style="stroke:none;stroke-width:1.0;" width="230" x="157.5" y="5"/><text fill="#000000" font-family="sans-serif" font-size="14" font-weight="bold" lengthAdjust="spacing" textLength="220" x="162.5" y="22.9951">Out Of Print - Class Diagram</text><!--MD5=[b79fd03ff18d3ae0e30238b519968545]
class OutOfPrintShop--><g id="elem_OutOfPrintShop"><rect codeLine="3" fill="#F1F1F1" height="129.4844" id="OutOfPrintShop" rx="2.5" ry="2.5" style="stroke:#181818;stroke-width:0.5;" width="308" x="58" y="44.2969"/><ellipse cx="154.25" cy="60.2969" fill="#ADD1B2" rx="11" ry="11" style="stroke:#181818;stroke-width:1.0;"/><path d="M157.2188,65.9375 Q156.6406,66.2344 156,66.375 Q155.3594,66.5313 154.6563,66.5313 Q152.1563,66.5313 150.8281,64.8906 Q149.5156,63.2344 149.5156,60.1094 Q149.5156,56.9844 150.8281,55.3281 Q152.1563,53.6719 154.6563,53.6719 Q155.3594,53.6719 156,53.8281 Q156.6563,53.9844 157.2188,54.2813 L157.2188,57 Q156.5938,56.4219 156,56.1563 Q155.4063,55.875 154.7813,55.875 Q153.4375,55.875 152.75,56.9531 Q152.0625,58.0156 152.0625,60.1094 Q152.0625,62.2031 152.75,63.2813 Q153.4375,64.3438 154.7813,64.3438 Q155.4063,64.3438 156,64.0781 Q156.5938,63.7969 157.2188,63.2188 L157.2188,65.9375 Z " fill="#000000"/><text fill="#000000" font-family="sans-serif" font-size="14" lengthAdjust="spacing" textLength="107" x="174.75" y="65.1436">OutOfPrintShop</text><line style="stroke:#181818;stroke-width:0.5;" x1="59" x2="365" y1="76.2969" y2="76.2969"/><line style="stroke:#181818;stroke-width:0.5;" x1="59" x2="365" y1="84.2969" y2="84.2969"/><ellipse cx="69" cy="97.9453" fill="#84BE84" rx="3" ry="3" style="stroke:#038048;stroke-width:1.0;"/><text fill="#000000" font-family="sans-serif" font-size="14" lengthAdjust="spacing" textLength="118" x="78" y="101.292">Album[] Albums()</text><ellipse cx="69" cy="114.2422" fill="#84BE84" rx="3" ry="3" style="stroke:#038048;stroke-width:1.0;"/><text fill="#000000" font-family="sans-serif" font-size="14" lengthAdjust="spacing" textLength="96" x="78" y="117.5889">User[] Users()</text><ellipse cx="69" cy="130.5391" fill="#84BE84" rx="3" ry="3" style="stroke:#038048;stroke-width:1.0;"/><text fill="#000000" font-family="sans-serif" font-size="14" lengthAdjust="spacing" textLength="110" x="78" y="133.8857">Album[] Artists()</text><ellipse cx="69" cy="146.8359" fill="#84BE84" rx="3" ry="3" style="stroke:#038048;stroke-width:1.0;"/><text fill="#000000" font-family="sans-serif" font-size="14" lengthAdjust="spacing" textLength="104" x="78" y="150.1826">Label[] Labels()</text><ellipse cx="69" cy="163.1328" fill="#84BE84" rx="3" ry="3" style="stroke:#038048;stroke-width:1.0;"/><text fill="#000000" font-family="sans-serif" font-size="14" lengthAdjust="spacing" textLength="282" x="78" y="166.4795">User Login(String email, String password)</text></g><!--MD5=[8ae2c2db09eb731972ab511bcae12bf3]
class Artist--><g id="elem_Artist"><rect codeLine="12" fill="#F1F1F1" height="113.1875" id="Artist" rx="2.5" ry="2.5" style="stroke:#181818;stroke-width:0.5;" width="144" x="78" y="257.7969"/><ellipse cx="128.25" cy="273.7969" fill="#ADD1B2" rx="11" ry="11" style="stroke:#181818;stroke-width:1.0;"/><path d="M131.2188,279.4375 Q130.6406,279.7344 130,279.875 Q129.3594,280.0313 128.6563,280.0313 Q126.1563,280.0313 124.8281,278.3906 Q123.5156,276.7344 123.5156,273.6094 Q123.5156,270.4844 124.8281,268.8281 Q126.1563,267.1719 128.6563,267.1719 Q129.3594,267.1719 130,267.3281 Q130.6563,267.4844 131.2188,267.7813 L131.2188,270.5 Q130.5938,269.9219 130,269.6563 Q129.4063,269.375 128.7813,269.375 Q127.4375,269.375 126.75,270.4531 Q126.0625,271.5156 126.0625,273.6094 Q126.0625,275.7031 126.75,276.7813 Q127.4375,277.8438 128.7813,277.8438 Q129.4063,277.8438 130,277.5781 Q130.5938,277.2969 131.2188,276.7188 L131.2188,279.4375 Z " fill="#000000"/><text fill="#000000" font-family="sans-serif" font-size="14" lengthAdjust="spacing" textLength="35" x="148.75" y="278.6436">Artist</text><line style="stroke:#181818;stroke-width:0.5;" x1="79" x2="221" y1="289.7969" y2="289.7969"/><rect fill="none" height="6" style="stroke:#C82930;stroke-width:1.0;" width="6" x="86" y="300.4453"/><text fill="#000000" font-family="sans-serif" font-size="14" lengthAdjust="spacing" textLength="33" x="98" y="306.792">Int Id</text><ellipse cx="89" cy="319.7422" fill="none" rx="3" ry="3" style="stroke:#038048;stroke-width:1.0;"/><text fill="#000000" font-family="sans-serif" font-size="14" lengthAdjust="spacing" textLength="73" x="98" y="323.0889">String Title</text><line style="stroke:#181818;stroke-width:0.5;" x1="79" x2="221" y1="330.3906" y2="330.3906"/><ellipse cx="89" cy="344.0391" fill="#84BE84" rx="3" ry="3" style="stroke:#038048;stroke-width:1.0;"/><text fill="#000000" font-family="sans-serif" font-size="14" lengthAdjust="spacing" textLength="118" x="98" y="347.3857">Album[] Albums()</text><ellipse cx="89" cy="360.3359" fill="#84BE84" rx="3" ry="3" style="stroke:#038048;stroke-width:1.0;"/><text fill="#000000" font-family="sans-serif" font-size="14" lengthAdjust="spacing" textLength="104" x="98" y="363.6826">Label[] Labels()</text></g><!--MD5=[3fd616f346a44cd59a91eb10b19e157c]
class User--><g id="elem_User"><rect codeLine="19" fill="#F1F1F1" height="162.0781" id="User" rx="2.5" ry="2.5" style="stroke:#181818;stroke-width:0.5;" width="205" x="337.5" y="233.2969"/><ellipse cx="419.75" cy="249.2969" fill="#ADD1B2" rx="11" ry="11" style="stroke:#181818;stroke-width:1.0;"/><path d="M422.7188,254.9375 Q422.1406,255.2344 421.5,255.375 Q420.8594,255.5313 420.1563,255.5313 Q417.6563,255.5313 416.3281,253.8906 Q415.0156,252.2344 415.0156,249.1094 Q415.0156,245.9844 416.3281,244.3281 Q417.6563,242.6719 420.1563,242.6719 Q420.8594,242.6719 421.5,242.8281 Q422.1563,242.9844 422.7188,243.2813 L422.7188,246 Q422.0938,245.4219 421.5,245.1563 Q420.9063,244.875 420.2813,244.875 Q418.9375,244.875 418.25,245.9531 Q417.5625,247.0156 417.5625,249.1094 Q417.5625,251.2031 418.25,252.2813 Q418.9375,253.3438 420.2813,253.3438 Q420.9063,253.3438 421.5,253.0781 Q422.0938,252.7969 422.7188,252.2188 L422.7188,254.9375 Z " fill="#000000"/><text fill="#000000" font-family="sans-serif" font-size="14" lengthAdjust="spacing" textLength="32" x="440.25" y="254.1436">User</text><line style="stroke:#181818;stroke-width:0.5;" x1="338.5" x2="541.5" y1="265.2969" y2="265.2969"/><rect fill="none" height="6" style="stroke:#C82930;stroke-width:1.0;" width="6" x="345.5" y="275.9453"/><text fill="#000000" font-family="sans-serif" font-size="14" lengthAdjust="spacing" textLength="33" x="357.5" y="282.292">Int Id</text><ellipse cx="348.5" cy="295.2422" fill="none" rx="3" ry="3" style="stroke:#038048;stroke-width:1.0;"/><text fill="#000000" font-family="sans-serif" font-size="14" lengthAdjust="spacing" textLength="113" x="357.5" y="298.5889">String FirstName</text><ellipse cx="348.5" cy="311.5391" fill="none" rx="3" ry="3" style="stroke:#038048;stroke-width:1.0;"/><text fill="#000000" font-family="sans-serif" font-size="14" lengthAdjust="spacing" textLength="112" x="357.5" y="314.8857">String LastName</text><ellipse cx="348.5" cy="327.8359" fill="none" rx="3" ry="3" style="stroke:#038048;stroke-width:1.0;"/><text fill="#000000" font-family="sans-serif" font-size="14" lengthAdjust="spacing" textLength="80" x="357.5" y="331.1826">String Email</text><ellipse cx="348.5" cy="344.1328" fill="none" rx="3" ry="3" style="stroke:#038048;stroke-width:1.0;"/><text fill="#000000" font-family="sans-serif" font-size="14" lengthAdjust="spacing" textLength="111" x="357.5" y="347.4795">String Password</text><ellipse cx="348.5" cy="360.4297" fill="none" rx="3" ry="3" style="stroke:#038048;stroke-width:1.0;"/><text fill="#000000" font-family="sans-serif" font-size="14" lengthAdjust="spacing" textLength="179" x="357.5" y="363.7764">String Address // Not Sure</text><line style="stroke:#181818;stroke-width:0.5;" x1="338.5" x2="541.5" y1="371.0781" y2="371.0781"/><ellipse cx="348.5" cy="384.7266" fill="#84BE84" rx="3" ry="3" style="stroke:#038048;stroke-width:1.0;"/><text fill="#000000" font-family="sans-serif" font-size="14" lengthAdjust="spacing" textLength="110" x="357.5" y="388.0732">Order[] Orders()</text></g><!--MD5=[eae91a105560dd2fa82c32dc3c32053e]
class ShippingCost--><g id="elem_ShippingCost"><rect codeLine="30" fill="#F1F1F1" height="80.5938" id="ShippingCost" rx="2.5" ry="2.5" style="stroke:#181818;stroke-width:0.5;" width="124" x="378" y="799.2969"/><ellipse cx="393" cy="815.2969" fill="#ADD1B2" rx="11" ry="11" style="stroke:#181818;stroke-width:1.0;"/><path d="M395.9688,820.9375 Q395.3906,821.2344 394.75,821.375 Q394.1094,821.5313 393.4063,821.5313 Q390.9063,821.5313 389.5781,819.8906 Q388.2656,818.2344 388.2656,815.1094 Q388.2656,811.9844 389.5781,810.3281 Q390.9063,808.6719 393.4063,808.6719 Q394.1094,808.6719 394.75,808.8281 Q395.4063,808.9844 395.9688,809.2813 L395.9688,812 Q395.3438,811.4219 394.75,811.1563 Q394.1563,810.875 393.5313,810.875 Q392.1875,810.875 391.5,811.9531 Q390.8125,813.0156 390.8125,815.1094 Q390.8125,817.2031 391.5,818.2813 Q392.1875,819.3438 393.5313,819.3438 Q394.1563,819.3438 394.75,819.0781 Q395.3438,818.7969 395.9688,818.2188 L395.9688,820.9375 Z " fill="#000000"/><text fill="#000000" font-family="sans-serif" font-size="14" lengthAdjust="spacing" textLength="92" x="407" y="820.1436">ShippingCost</text><line style="stroke:#181818;stroke-width:0.5;" x1="379" x2="501" y1="831.2969" y2="831.2969"/><rect fill="none" height="6" style="stroke:#C82930;stroke-width:1.0;" width="6" x="386" y="841.9453"/><text fill="#000000" font-family="sans-serif" font-size="14" lengthAdjust="spacing" textLength="37" x="398" y="848.292">Int Id,</text><ellipse cx="389" cy="861.2422" fill="none" rx="3" ry="3" style="stroke:#038048;stroke-width:1.0;"/><text fill="#000000" font-family="sans-serif" font-size="14" lengthAdjust="spacing" textLength="93" x="398" y="864.5889">Decimal Price</text><line style="stroke:#181818;stroke-width:0.5;" x1="379" x2="501" y1="871.8906" y2="871.8906"/></g><!--MD5=[e84c991d4d3bbf916ee1653c86a9249d]
class Label--><g id="elem_Label"><rect codeLine="36" fill="#F1F1F1" height="113.1875" id="Label" rx="2.5" ry="2.5" style="stroke:#181818;stroke-width:0.5;" width="144" x="7" y="504.2969"/><ellipse cx="56.75" cy="520.2969" fill="#ADD1B2" rx="11" ry="11" style="stroke:#181818;stroke-width:1.0;"/><path d="M59.7188,525.9375 Q59.1406,526.2344 58.5,526.375 Q57.8594,526.5313 57.1563,526.5313 Q54.6563,526.5313 53.3281,524.8906 Q52.0156,523.2344 52.0156,520.1094 Q52.0156,516.9844 53.3281,515.3281 Q54.6563,513.6719 57.1563,513.6719 Q57.8594,513.6719 58.5,513.8281 Q59.1563,513.9844 59.7188,514.2813 L59.7188,517 Q59.0938,516.4219 58.5,516.1563 Q57.9063,515.875 57.2813,515.875 Q55.9375,515.875 55.25,516.9531 Q54.5625,518.0156 54.5625,520.1094 Q54.5625,522.2031 55.25,523.2813 Q55.9375,524.3438 57.2813,524.3438 Q57.9063,524.3438 58.5,524.0781 Q59.0938,523.7969 59.7188,523.2188 L59.7188,525.9375 Z " fill="#000000"/><text fill="#000000" font-family="sans-serif" font-size="14" lengthAdjust="spacing" textLength="36" x="77.25" y="525.1436">Label</text><line style="stroke:#181818;stroke-width:0.5;" x1="8" x2="150" y1="536.2969" y2="536.2969"/><rect fill="none" height="6" style="stroke:#C82930;stroke-width:1.0;" width="6" x="15" y="546.9453"/><text fill="#000000" font-family="sans-serif" font-size="14" lengthAdjust="spacing" textLength="33" x="27" y="553.292">Int Id</text><ellipse cx="18" cy="566.2422" fill="none" rx="3" ry="3" style="stroke:#038048;stroke-width:1.0;"/><text fill="#000000" font-family="sans-serif" font-size="14" lengthAdjust="spacing" textLength="73" x="27" y="569.5889">String Title</text><line style="stroke:#181818;stroke-width:0.5;" x1="8" x2="150" y1="576.8906" y2="576.8906"/><ellipse cx="18" cy="590.5391" fill="#84BE84" rx="3" ry="3" style="stroke:#038048;stroke-width:1.0;"/><text fill="#000000" font-family="sans-serif" font-size="14" lengthAdjust="spacing" textLength="118" x="27" y="593.8857">Album[] Albums()</text><ellipse cx="18" cy="606.8359" fill="#84BE84" rx="3" ry="3" style="stroke:#038048;stroke-width:1.0;"/><text fill="#000000" font-family="sans-serif" font-size="14" lengthAdjust="spacing" textLength="102" x="27" y="610.1826">Artist[] Artists()</text></g><!--MD5=[7560274dc4d8b0cfc2c0496e7291d5fc]
class Album--><g id="elem_Album"><rect codeLine="44" fill="#F1F1F1" height="227.2656" id="Album" rx="2.5" ry="2.5" style="stroke:#181818;stroke-width:0.5;" width="156" x="157" y="726.2969"/><ellipse cx="209.25" cy="742.2969" fill="#ADD1B2" rx="11" ry="11" style="stroke:#181818;stroke-width:1.0;"/><path d="M212.2188,747.9375 Q211.6406,748.2344 211,748.375 Q210.3594,748.5313 209.6563,748.5313 Q207.1563,748.5313 205.8281,746.8906 Q204.5156,745.2344 204.5156,742.1094 Q204.5156,738.9844 205.8281,737.3281 Q207.1563,735.6719 209.6563,735.6719 Q210.3594,735.6719 211,735.8281 Q211.6563,735.9844 212.2188,736.2813 L212.2188,739 Q211.5938,738.4219 211,738.1563 Q210.4063,737.875 209.7813,737.875 Q208.4375,737.875 207.75,738.9531 Q207.0625,740.0156 207.0625,742.1094 Q207.0625,744.2031 207.75,745.2813 Q208.4375,746.3438 209.7813,746.3438 Q210.4063,746.3438 211,746.0781 Q211.5938,745.7969 212.2188,745.2188 L212.2188,747.9375 Z " fill="#000000"/><text fill="#000000" font-family="sans-serif" font-size="14" lengthAdjust="spacing" textLength="43" x="229.75" y="747.1436">Album</text><line style="stroke:#181818;stroke-width:0.5;" x1="158" x2="312" y1="758.2969" y2="758.2969"/><rect fill="none" height="6" style="stroke:#C82930;stroke-width:1.0;" width="6" x="165" y="768.9453"/><text fill="#000000" font-family="sans-serif" font-size="14" lengthAdjust="spacing" textLength="68" x="177" y="775.292">Int ArtistId</text><rect fill="none" height="6" style="stroke:#C82930;stroke-width:1.0;" width="6" x="165" y="785.2422"/><text fill="#000000" font-family="sans-serif" font-size="14" lengthAdjust="spacing" textLength="69" x="177" y="791.5889">Int LabelId</text><rect fill="none" height="6" style="stroke:#C82930;stroke-width:1.0;" width="6" x="165" y="801.5391"/><text fill="#000000" font-family="sans-serif" font-size="14" lengthAdjust="spacing" textLength="81" x="177" y="807.8857">Int FormatId</text><ellipse cx="168" cy="820.8359" fill="none" rx="3" ry="3" style="stroke:#038048;stroke-width:1.0;"/><text fill="#000000" font-family="sans-serif" font-size="14" lengthAdjust="spacing" textLength="73" x="177" y="824.1826">String Title</text><ellipse cx="168" cy="837.1328" fill="none" rx="3" ry="3" style="stroke:#038048;stroke-width:1.0;"/><text fill="#000000" font-family="sans-serif" font-size="14" lengthAdjust="spacing" textLength="68" x="177" y="840.4795">Date Year</text><ellipse cx="168" cy="853.4297" fill="none" rx="3" ry="3" style="stroke:#038048;stroke-width:1.0;"/><text fill="#000000" font-family="sans-serif" font-size="14" lengthAdjust="spacing" textLength="91" x="177" y="856.7764">String Edition</text><ellipse cx="168" cy="869.7266" fill="none" rx="3" ry="3" style="stroke:#038048;stroke-width:1.0;"/><text fill="#000000" font-family="sans-serif" font-size="14" lengthAdjust="spacing" textLength="106" x="177" y="873.0732">Image[] Images</text><ellipse cx="168" cy="886.0234" fill="none" rx="3" ry="3" style="stroke:#038048;stroke-width:1.0;"/><text fill="#000000" font-family="sans-serif" font-size="14" lengthAdjust="spacing" textLength="91" x="177" y="889.3701">String Details</text><ellipse cx="168" cy="902.3203" fill="none" rx="3" ry="3" style="stroke:#038048;stroke-width:1.0;"/><text fill="#000000" font-family="sans-serif" font-size="14" lengthAdjust="spacing" textLength="110" x="177" y="905.667">String Condition</text><ellipse cx="168" cy="918.6172" fill="none" rx="3" ry="3" style="stroke:#038048;stroke-width:1.0;"/><text fill="#000000" font-family="sans-serif" font-size="14" lengthAdjust="spacing" textLength="130" x="177" y="921.9639">String SoundFileUri</text><ellipse cx="168" cy="934.9141" fill="none" rx="3" ry="3" style="stroke:#038048;stroke-width:1.0;"/><text fill="#000000" font-family="sans-serif" font-size="14" lengthAdjust="spacing" textLength="93" x="177" y="938.2607">Decimal Price</text><line style="stroke:#181818;stroke-width:0.5;" x1="158" x2="312" y1="945.5625" y2="945.5625"/></g><!--MD5=[f144808e0e29279a3117e64f7a82a4df]
class Format--><g id="elem_Format"><rect codeLine="58" fill="#F1F1F1" height="96.8906" id="Format" rx="2.5" ry="2.5" style="stroke:#181818;stroke-width:0.5;" width="111" x="179.5" y="1013.2969"/><ellipse cx="208.45" cy="1029.2969" fill="#ADD1B2" rx="11" ry="11" style="stroke:#181818;stroke-width:1.0;"/><path d="M211.4188,1034.9375 Q210.8406,1035.2344 210.2,1035.375 Q209.5594,1035.5313 208.8563,1035.5313 Q206.3563,1035.5313 205.0281,1033.8906 Q203.7156,1032.2344 203.7156,1029.1094 Q203.7156,1025.9844 205.0281,1024.3281 Q206.3563,1022.6719 208.8563,1022.6719 Q209.5594,1022.6719 210.2,1022.8281 Q210.8563,1022.9844 211.4188,1023.2813 L211.4188,1026 Q210.7938,1025.4219 210.2,1025.1563 Q209.6063,1024.875 208.9813,1024.875 Q207.6375,1024.875 206.95,1025.9531 Q206.2625,1027.0156 206.2625,1029.1094 Q206.2625,1031.2031 206.95,1032.2813 Q207.6375,1033.3438 208.9813,1033.3438 Q209.6063,1033.3438 210.2,1033.0781 Q210.7938,1032.7969 211.4188,1032.2188 L211.4188,1034.9375 Z " fill="#000000"/><text fill="#000000" font-family="sans-serif" font-size="14" lengthAdjust="spacing" textLength="48" x="225.55" y="1034.1436">Format</text><line style="stroke:#181818;stroke-width:0.5;" x1="180.5" x2="289.5" y1="1045.2969" y2="1045.2969"/><rect fill="none" height="6" style="stroke:#C82930;stroke-width:1.0;" width="6" x="187.5" y="1055.9453"/><text fill="#000000" font-family="sans-serif" font-size="14" lengthAdjust="spacing" textLength="33" x="199.5" y="1062.292">Int Id</text><ellipse cx="190.5" cy="1075.2422" fill="none" rx="3" ry="3" style="stroke:#038048;stroke-width:1.0;"/><text fill="#000000" font-family="sans-serif" font-size="14" lengthAdjust="spacing" textLength="85" x="199.5" y="1078.5889">Float Weight</text><ellipse cx="190.5" cy="1091.5391" fill="none" rx="3" ry="3" style="stroke:#038048;stroke-width:1.0;"/><text fill="#000000" font-family="sans-serif" font-size="14" lengthAdjust="spacing" textLength="73" x="199.5" y="1094.8857">String Title</text><line style="stroke:#181818;stroke-width:0.5;" x1="180.5" x2="289.5" y1="1102.1875" y2="1102.1875"/></g><!--MD5=[cf4d6237fcae255cd2e1656cf84a30e2]
class Order--><g id="elem_Order"><rect codeLine="65" fill="#F1F1F1" height="210.9688" id="Order" rx="2.5" ry="2.5" style="stroke:#181818;stroke-width:0.5;" width="224" x="328" y="455.2969"/><ellipse cx="416.25" cy="471.2969" fill="#ADD1B2" rx="11" ry="11" style="stroke:#181818;stroke-width:1.0;"/><path d="M419.2188,476.9375 Q418.6406,477.2344 418,477.375 Q417.3594,477.5313 416.6563,477.5313 Q414.1563,477.5313 412.8281,475.8906 Q411.5156,474.2344 411.5156,471.1094 Q411.5156,467.9844 412.8281,466.3281 Q414.1563,464.6719 416.6563,464.6719 Q417.3594,464.6719 418,464.8281 Q418.6563,464.9844 419.2188,465.2813 L419.2188,468 Q418.5938,467.4219 418,467.1563 Q417.4063,466.875 416.7813,466.875 Q415.4375,466.875 414.75,467.9531 Q414.0625,469.0156 414.0625,471.1094 Q414.0625,473.2031 414.75,474.2813 Q415.4375,475.3438 416.7813,475.3438 Q417.4063,475.3438 418,475.0781 Q418.5938,474.7969 419.2188,474.2188 L419.2188,476.9375 Z " fill="#000000"/><text fill="#000000" font-family="sans-serif" font-size="14" lengthAdjust="spacing" textLength="39" x="436.75" y="476.1436">Order</text><line style="stroke:#181818;stroke-width:0.5;" x1="329" x2="551" y1="487.2969" y2="487.2969"/><rect fill="none" height="6" style="stroke:#C82930;stroke-width:1.0;" width="6" x="336" y="497.9453"/><text fill="#000000" font-family="sans-serif" font-size="14" lengthAdjust="spacing" textLength="33" x="348" y="504.292">Int Id</text><rect fill="none" height="6" style="stroke:#C82930;stroke-width:1.0;" width="6" x="336" y="514.2422"/><text fill="#000000" font-family="sans-serif" font-size="14" lengthAdjust="spacing" textLength="125" x="348" y="520.5889">Int ShippingCostId</text><ellipse cx="339" cy="533.5391" fill="none" rx="3" ry="3" style="stroke:#038048;stroke-width:1.0;"/><text fill="#000000" font-family="sans-serif" font-size="14" lengthAdjust="spacing" textLength="65" x="348" y="536.8857">Int UserId</text><text fill="#000000" font-family="sans-serif" font-size="14" lengthAdjust="spacing" textLength="4" x="348" y="553.1826"> </text><ellipse cx="339" cy="566.1328" fill="none" rx="3" ry="3" style="stroke:#038048;stroke-width:1.0;"/><text fill="#000000" font-family="sans-serif" font-size="14" lengthAdjust="spacing" textLength="155" x="348" y="569.4795">String DeliveryAddress</text><ellipse cx="339" cy="582.4297" fill="none" rx="3" ry="3" style="stroke:#038048;stroke-width:1.0;"/><text fill="#000000" font-family="sans-serif" font-size="14" lengthAdjust="spacing" textLength="158" x="348" y="585.7764">String InvocingAddress</text><ellipse cx="339" cy="598.7266" fill="none" rx="3" ry="3" style="stroke:#038048;stroke-width:1.0;"/><text fill="#000000" font-family="sans-serif" font-size="14" lengthAdjust="spacing" textLength="68" x="348" y="602.0732">User User</text><line style="stroke:#181818;stroke-width:0.5;" x1="329" x2="551" y1="609.375" y2="609.375"/><ellipse cx="339" cy="623.0234" fill="#84BE84" rx="3" ry="3" style="stroke:#038048;stroke-width:1.0;"/><text fill="#000000" font-family="sans-serif" font-size="14" lengthAdjust="spacing" textLength="137" x="348" y="626.3701">Decimal TotalPrice()</text><ellipse cx="339" cy="639.3203" fill="#84BE84" rx="3" ry="3" style="stroke:#038048;stroke-width:1.0;"/><text fill="#000000" font-family="sans-serif" font-size="14" lengthAdjust="spacing" textLength="198" x="348" y="642.667">ShippingCost ShippingCost()</text><ellipse cx="339" cy="655.6172" fill="#84BE84" rx="3" ry="3" style="stroke:#038048;stroke-width:1.0;"/><text fill="#000000" font-family="sans-serif" font-size="14" lengthAdjust="spacing" textLength="118" x="348" y="658.9639">Album[] Albums()</text></g><!--MD5=[4e4fdf8c0aafd26c49dd2738bc9b4987]
reverse link OutOfPrintShop to Album--><g id="link_OutOfPrintShop_Album"><path codeLine="80" d="M231.39,186.2469 C234.56,201.7269 237.34,217.9569 239,233.2969 C257.49,404.4369 250.69,604.3769 243.39,726.2569 " fill="none" id="OutOfPrintShop-backto-Album" style="stroke:#181818;stroke-width:1.0;"/><polygon fill="none" points="228.66,173.4669,226.0008,180.1698,231.1653,185.2024,233.8245,178.4995,228.66,173.4669" style="stroke:#181818;stroke-width:1.0;"/></g><!--MD5=[f30799a1b506fca1ffde27fc54c58fa0]
reverse link OutOfPrintShop to Artist--><g id="link_OutOfPrintShop_Artist"><path codeLine="81" d="M188.79,185.9769 C181.53,209.8169 173.66,235.6569 166.91,257.7869 " fill="none" id="OutOfPrintShop-backto-Artist" style="stroke:#181818;stroke-width:1.0;"/><polygon fill="none" points="192.64,173.3469,187.0653,177.921,189.1434,184.8262,194.7181,180.252,192.64,173.3469" style="stroke:#181818;stroke-width:1.0;"/></g><!--MD5=[e9d83d7e0d9ff0685ba004293b62f684]
reverse link OutOfPrintShop to User--><g id="link_OutOfPrintShop_User"><path codeLine="82" d="M293.02,182.1169 C311.49,198.5969 331.22,216.2069 350.04,232.9969 " fill="none" id="OutOfPrintShop-backto-User" style="stroke:#181818;stroke-width:1.0;"/><polygon fill="none" points="283.2,173.3469,285.013,180.3263,292.1529,181.3372,290.3399,174.3578,283.2,173.3469" style="stroke:#181818;stroke-width:1.0;"/></g><!--MD5=[1edc499aed76fe1a67774b8dda4995c0]
reverse link OutOfPrintShop to Label--><g id="link_OutOfPrintShop_Label"><path codeLine="83" d="M97.81,182.4969 C82.51,197.3669 69.02,214.3569 60,233.2969 C18.39,320.7069 40.64,436.5169 60.13,504.1169 " fill="none" id="OutOfPrintShop-backto-Label" style="stroke:#181818;stroke-width:1.0;"/><polygon fill="none" points="107.54,173.5169,100.4185,174.65,98.7254,181.6595,105.8469,180.5264,107.54,173.5169" style="stroke:#181818;stroke-width:1.0;"/></g><!--MD5=[d6b22ec8007db4ed2b4b67ee8e000048]
reverse link Artist to Album--><g id="link_Artist_Album"><path codeLine="84" d="M161.11,383.6969 C175.23,470.6969 199.82,622.1269 216.73,726.2569 " fill="none" id="Artist-backto-Album" style="stroke:#181818;stroke-width:1.0;"/><polygon fill="none" points="159.02,370.8269,156.0347,377.391,160.9457,382.6714,163.931,376.1072,159.02,370.8269" style="stroke:#181818;stroke-width:1.0;"/></g><!--MD5=[f15fcab7b09fffeca82204c38e30e7e3]
reverse link Artist to Label--><g id="link_Artist_Label"><path codeLine="85" d="M130.16,383.6269 C119.11,421.6869 105.52,468.4669 95.13,504.2469 " fill="none" id="Artist-backto-Label" style="stroke:#181818;stroke-width:1.0;"/><polygon fill="none" points="133.8,371.0869,128.2831,375.7305,130.4476,382.6091,135.9645,377.9654,133.8,371.0869" style="stroke:#181818;stroke-width:1.0;"/></g><!--MD5=[15686ebf0508f9e365d0665429920c16]
reverse link Label to Album--><g id="link_Label_Album"><path codeLine="86" d="M116.97,629.2269 C133.4,658.3869 153.07,693.3069 171.6,726.2169 " fill="none" id="Label-backto-Album" style="stroke:#181818;stroke-width:1.0;"/><polygon fill="none" points="110.38,617.5169,109.8348,624.7073,116.2625,627.9761,116.8077,620.7857,110.38,617.5169" style="stroke:#181818;stroke-width:1.0;"/></g><!--MD5=[886e22bab51f7976c0e0b0f77c911140]
reverse link User to Order--><g id="link_User_Order"><path codeLine="87" d="M427.57,408.5369 C427.23,423.7569 427.16,439.6069 427.37,455.0769 " fill="none" id="User-backto-Order" style="stroke:#181818;stroke-width:1.0;"/><polygon fill="none" points="427.95,395.3569,423.7803,401.2402,427.6073,407.352,431.777,401.4687,427.95,395.3569" style="stroke:#181818;stroke-width:1.0;"/></g><!--MD5=[e24aee972611f650b83da051c892251f]
reverse link Order to User--><g id="link_Order_User"><path codeLine="90" d="M453.49,441.8869 C453.55,426.1169 453.3,410.2569 452.76,395.3569 " fill="none" id="Order-backto-User" style="stroke:#181818;stroke-width:1.0;"/><polygon fill="#181818" points="453.38,455.0769,457.4326,449.1123,453.4855,443.0773,449.4329,449.0419,453.38,455.0769" style="stroke:#181818;stroke-width:1.0;"/></g><!--MD5=[963cc083357f6280b919f27d222d38c9]
reverse link Order to Album--><g id="link_Order_Album"><path codeLine="88" d="M354.7,677.0569 C340.98,695.5969 326.84,714.7069 313.29,733.0069 " fill="none" id="Order-backto-Album" style="stroke:#181818;stroke-width:1.0;"/><polygon fill="none" points="362.5,666.5169,355.7133,668.9542,355.3529,676.1563,362.1396,673.719,362.5,666.5169" style="stroke:#181818;stroke-width:1.0;"/></g><!--MD5=[e72eec71de9d056e383ff54d230a9ad1]
reverse link Order to ShippingCost--><g id="link_Order_ShippingCost"><path codeLine="89" d="M440,679.6569 C440,722.3169 440,767.6469 440,798.9769 " fill="none" id="Order-backto-ShippingCost" style="stroke:#181818;stroke-width:1.0;"/><polygon fill="#181818" points="440,666.5169,436,672.5169,440,678.5169,444,672.5169,440,666.5169" style="stroke:#181818;stroke-width:1.0;"/></g><!--MD5=[1ae211e5268bc162cc92b09fefea8b48]
reverse link Album to Format--><g id="link_Album_Format"><path codeLine="91" d="M235,966.6469 C235,983.0969 235,999.0569 235,1013.0269 " fill="none" id="Album-backto-Format" style="stroke:#181818;stroke-width:1.0;"/><polygon fill="#181818" points="235,953.3769,231,959.3769,235,965.3769,239,959.3769,235,953.3769" style="stroke:#181818;stroke-width:1.0;"/></g><!--MD5=[1fca48dfe633fb8c0c08db53a0e45379]
@startuml
title Out Of Print - Class Diagram

class OutOfPrintShop
{
  +Album[] Albums()
  +User[] Users()
  +Album[] Artists()
  +Label[] Labels()
  +User Login(String email, String password)
}

class Artist {
  -Int Id
  +String Title
  +Album[] Albums()
  +Label[] Labels()
}

class User
{
  -Int Id
  +String FirstName
  +String LastName
  +String Email
  +String Password
  +String Address // Not Sure
  +Order[] Orders()
}

class ShippingCost
{
  -Int Id,
  +Decimal Price
}

class Label
{
  -Int Id
  +String Title
  +Album[] Albums()
  +Artist[] Artists()
}

class Album {
  -Int ArtistId
  -Int LabelId
  -Int FormatId
  +String Title
  +Date Year
  +String Edition
  +Image[] Images
  +String Details
  +String Condition
  +String SoundFileUri
  +Decimal Price
}

class Format
{
  -Int Id
  +Float Weight
  +String Title
}

class Order
{
  -Int Id
  -Int ShippingCostId
  +Int UserId

  +String DeliveryAddress
  +String InvocingAddress
  +User User
  +Decimal TotalPrice()
  +ShippingCost ShippingCost()
  +Album[] Albums()
}


OutOfPrintShop o- - Album
OutOfPrintShop o- - Artist
OutOfPrintShop o- - User
OutOfPrintShop o- - Label
Artist o- - Album
Artist o- - Label
Label o- - Album
User o- - Order
Order o- - Album
Order *- - ShippingCost
Order *- - User
Album *- - Format
@enduml

PlantUML version 1.2022.7(Mon Aug 22 17:01:30 UTC 2022)
(GPL source distribution)
Java Runtime: OpenJDK Runtime Environment
JVM: OpenJDK 64-Bit Server VM
Default Encoding: UTF-8
Language: en
Country: null
--></g></svg>